<svg width="40" height="40" viewBox="0 0 40 40" fill="none" xmlns="http://www.w3.org/2000/svg">
<path fill-rule="evenodd" clip-rule="evenodd" d="M10.9829 12.0969C11.3971 12.0969 11.7329 12.4327 11.7329 12.8469V16.5969H15.4829C15.8971 16.5969 16.2329 16.9327 16.2329 17.3469C16.2329 17.7611 15.8971 18.0969 15.4829 18.0969H10.9829C10.5687 18.0969 10.2329 17.7611 10.2329 17.3469V12.8469C10.2329 12.4327 10.5687 12.0969 10.9829 12.0969Z" fill="#82829B"/>
<path fill-rule="evenodd" clip-rule="evenodd" d="M18.2479 11.1735C19.9939 10.8256 21.8039 11.0034 23.4489 11.6844C25.0938 12.3654 26.4999 13.5189 27.4891 14.9991C28.4784 16.4793 29.0064 18.2197 29.0064 20C29.0064 21.7803 28.4784 23.5207 27.4891 25.0009C26.4999 26.4811 25.0938 27.6346 23.4489 28.3156C21.8039 28.9966 19.9939 29.1744 18.2479 28.8265C16.5019 28.4787 14.8982 27.6208 13.6399 26.3614C13.3471 26.0684 13.3473 25.5935 13.6403 25.3007C13.9333 25.0079 14.4082 25.0081 14.701 25.3011C15.7496 26.3506 17.086 27.0656 18.541 27.3554C19.996 27.6453 21.5043 27.4972 22.8751 26.9297C24.2459 26.3622 25.4176 25.4009 26.242 24.1674C27.0664 22.9339 27.5064 21.4836 27.5064 20C27.5064 18.5164 27.0664 17.0661 26.242 15.8326C25.4176 14.5991 24.2459 13.6378 22.8751 13.0703C21.5043 12.5028 19.996 12.3547 18.541 12.6446C17.086 12.9344 15.7496 13.6494 14.701 14.6989L14.7 14.6999L11.5125 17.878C11.2191 18.1705 10.7443 18.1698 10.4518 17.8764C10.1593 17.5831 10.16 17.1082 10.4534 16.8158L13.6399 13.6386C13.64 13.6385 13.6402 13.6383 13.6404 13.6381C14.8987 12.379 16.5021 11.5213 18.2479 11.1735Z" fill="#82829B"/>
</svg>
