<svg xmlns="http://www.w3.org/2000/svg" width="11" height="12" fill="none">
    <mask id="a" width="11" height="12" x="0" y="0" maskUnits="userSpaceOnUse">
    <path fill="#D9D9D9" d="M0 .5h11v11H0z" />
    </mask>
    <g mask="url(#a)">
    <path
        fill="#D43477"
        d="M5.5 10.583a3.99 3.99 0 0 1-1.61-.327 4.192 4.192 0 0 1-1.306-.882A4.193 4.193 0 0 1 1.7 8.068a3.99 3.99 0 0 1-.326-1.61c0-.573.109-1.11.326-1.61.218-.5.512-.936.883-1.307.37-.37.806-.664 1.306-.882a3.99 3.99 0 0 1 1.61-.326c.573 0 1.11.108 1.61.326.5.218.936.512 1.306.882.37.371.665.806.882 1.307.218.5.327 1.037.327 1.61a3.99 3.99 0 0 1-.327 1.61c-.217.5-.511.935-.882 1.306-.37.37-.806.664-1.306.882a3.99 3.99 0 0 1-1.61.327Zm1.283-2.2.642-.642-1.467-1.467V4.166h-.916V6.64l1.741 1.742ZM2.567 1.576l.641.642L1.26 4.166.62 3.524l1.948-1.948Zm5.866 0 1.948 1.948-.642.642-1.947-1.948.641-.642ZM5.5 9.666c.894 0 1.652-.311 2.274-.934.623-.622.934-1.38.934-2.274 0-.894-.311-1.652-.934-2.275-.622-.622-1.38-.934-2.274-.934-.894 0-1.652.312-2.275.934-.622.623-.933 1.38-.933 2.275 0 .893.31 1.652.933 2.274.623.623 1.381.934 2.275.934Z"
    />
    </g>
</svg>