<svg 
    xmlns="http://www.w3.org/2000/svg" 
    width="24" 
    height="24" 
    fill="none">
    <circle 
        cx="12" 
        cy="12" 
        r="11.5" 
        fill="#fff" 
        stroke="#CECECE"/>
    <path fill="#6224FD" 
        d="M16.817 8.2a.72.72 0 0 1 .183.485.72.72 0 0 1-.183.485l-6.051 6.63a.6.6 0 0 1-.443.2.6.6 0 0 1-.442-.2l-2.713-2.972a.724.724 0 0 1-.168-.48.72.72 0 0 1 .183-.473.6.6 0 0 1 .432-.201.596.596 0 0 1 .438.184l2.27 2.487 5.61-6.144A.6.6 0 0 1 16.374 8a.6.6 0 0 1 .442.2Z"/>
</svg>