<svg width="22" height="22" viewBox="0 0 22 22" fill="none" xmlns="http://www.w3.org/2000/svg">
<path d="M11.0026 20.166C9.73455 20.166 8.54288 19.9254 7.4276 19.4441C6.31233 18.9629 5.34219 18.3098 4.51719 17.4848C3.69219 16.6598 3.03906 15.6896 2.55781 14.5743C2.07656 13.4591 1.83594 12.2674 1.83594 10.9993C1.83594 9.73129 2.07656 8.53963 2.55781 7.42435C3.03906 6.30907 3.69219 5.33893 4.51719 4.51393C5.34219 3.68893 6.31233 3.03581 7.4276 2.55456C8.54288 2.07331 9.73455 1.83268 11.0026 1.83268C11.6595 1.83268 12.2936 1.89761 12.9047 2.02747C13.5158 2.15734 14.104 2.34449 14.6693 2.58893V4.65143C14.1345 4.34588 13.5578 4.10525 12.9391 3.92956C12.3203 3.75386 11.6748 3.66602 11.0026 3.66602C8.97066 3.66602 7.24045 4.38025 5.81198 5.80872C4.38351 7.2372 3.66927 8.9674 3.66927 10.9993C3.66927 13.0313 4.38351 14.7615 5.81198 16.19C7.24045 17.6184 8.97066 18.3327 11.0026 18.3327C13.0345 18.3327 14.7648 17.6184 16.1932 16.19C17.6217 14.7615 18.3359 13.0313 18.3359 10.9993C18.3359 10.5105 18.2863 10.0368 18.187 9.57852C18.0877 9.12018 17.954 8.67713 17.7859 8.24935H19.7568C19.8943 8.6924 19.9974 9.13928 20.0661 9.58997C20.1349 10.0407 20.1693 10.5105 20.1693 10.9993C20.1693 12.2674 19.9286 13.4591 19.4474 14.5743C18.9661 15.6896 18.313 16.6598 17.488 17.4848C16.663 18.3098 15.6929 18.9629 14.5776 19.4441C13.4623 19.9254 12.2707 20.166 11.0026 20.166ZM18.3359 6.41602V4.58268H16.5026V2.74935H18.3359V0.916016H20.1693V2.74935H22.0026V4.58268H20.1693V6.41602H18.3359ZM14.2109 10.0827C14.5929 10.0827 14.9175 9.949 15.1849 9.68164C15.4523 9.41428 15.5859 9.08963 15.5859 8.70768C15.5859 8.32574 15.4523 8.00109 15.1849 7.73372C14.9175 7.46636 14.5929 7.33268 14.2109 7.33268C13.829 7.33268 13.5043 7.46636 13.237 7.73372C12.9696 8.00109 12.8359 8.32574 12.8359 8.70768C12.8359 9.08963 12.9696 9.41428 13.237 9.68164C13.5043 9.949 13.829 10.0827 14.2109 10.0827ZM7.79427 10.0827C8.17622 10.0827 8.50087 9.949 8.76823 9.68164C9.03559 9.41428 9.16927 9.08963 9.16927 8.70768C9.16927 8.32574 9.03559 8.00109 8.76823 7.73372C8.50087 7.46636 8.17622 7.33268 7.79427 7.33268C7.41233 7.33268 7.08767 7.46636 6.82031 7.73372C6.55295 8.00109 6.41927 8.32574 6.41927 8.70768C6.41927 9.08963 6.55295 9.41428 6.82031 9.68164C7.08767 9.949 7.41233 10.0827 7.79427 10.0827ZM11.0026 16.041C12.0415 16.041 12.9849 15.7469 13.8328 15.1587C14.6807 14.5705 15.2957 13.7952 15.6776 12.8327H6.3276C6.70955 13.7952 7.32448 14.5705 8.1724 15.1587C9.02031 15.7469 9.96371 16.041 11.0026 16.041Z" fill="#504F50"/>
</svg>
