<svg xmlns="http://www.w3.org/2000/svg" width="20" height="20" fill="none">
<mask id="a" width="20" height="20" x="0" y="0" maskUnits="userSpaceOnUse">
    <path fill="#fff" fill-rule="evenodd" d="M0 0h19.499v19.5H0V0Z" clip-rule="evenodd" />
</mask>
<g mask="url(#a)">
    <path
    fill="#8655FF"
    fill-rule="evenodd"
    d="m8.805 11.818 3.657 5.933c.16.26.41.257.51.243a.508.508 0 0 0 .433-.371l4.573-15.445a.522.522 0 0 0-.133-.525.512.512 0 0 0-.512-.132L1.877 6.047a.51.51 0 0 0-.371.433.515.515 0 0 0 .241.52l6 3.754 5.303-5.358a.751.751 0 0 1 1.067 1.055l-5.312 5.367Zm4.09 7.682a1.997 1.997 0 0 1-1.71-.962l-3.877-6.291L.952 8.272A2.004 2.004 0 0 1 .02 6.276a2 2 0 0 1 1.435-1.668L16.91.082a2.02 2.02 0 0 1 2.504 2.522l-4.573 15.444a1.997 1.997 0 0 1-1.67 1.433 2.173 2.173 0 0 1-.277.019Z"
    clip-rule="evenodd"
    />
</g>
</svg>