<svg xmlns="http://www.w3.org/2000/svg" width="68" height="60" fill="none"><ellipse cx="30.176" cy="30" fill="#A793F8" fill-opacity=".08" rx="30.176" ry="30" transform="matrix(1 0 0 -1 0 60)"/><path fill="#6262FF" d="M46.79 20.37a2.84 2.84 0 0 0-.804-.617c-.531-.284-1.134-.47-1.73-.656-2.03-.633-4.035-1.311-5.99-2.085l-5.736-2.274c-1.685-.666-3.366-1.336-5.051-2.002l-1.31-.52c-.78-.308-1.744-.094-2.305.512l-.635.686-2.174 2.354-2.84 3.078c-.957 1.036-1.914 2.072-2.867 3.108l-3.492 3.783a65.533 65.533 0 0 1-1.486 1.523c-.897.89-1.34 1.682-1.016 2.893l4.141 17.239c.207.86 1.217 1.371 2.253 1.141l34.326-7.62c1.036-.23 1.712-1.117 1.505-1.978l-4.12-17.148c-.132-.555-.32-1.023-.67-1.42v.004Z"/><path fill="url(#a)" d="m39.903 14.438-26.188 5.696a1.64 1.64 0 0 0-1.252 1.986l4.28 18.136a1.71 1.71 0 0 0 2.02 1.274l26.189-5.697a1.64 1.64 0 0 0 1.252-1.986l-4.28-18.135a1.71 1.71 0 0 0-2.021-1.274Z"/><g filter="url(#b)"><path fill="#F6FAFF" fill-opacity=".5" d="m9.083 29.486 15.774 5.307-11.534 12.299-4.24-17.606Z"/></g><g filter="url(#c)"><path fill="#F6FAFF" fill-opacity=".5" d="M47.63 20.94 36.183 33.092l15.824 5.973L47.63 20.94Z"/></g><g filter="url(#d)"><path fill="#F5F8FF" fill-opacity=".5" d="M51.176 37.638a2.86 2.86 0 0 0-.817-.607c-.54-.277-1.151-.457-1.756-.638-2.063-.615-4.098-1.273-6.084-2.027l-5.825-2.216c-1.711-.65-3.42-1.302-5.13-1.951-.652-.247-1.3-.495-1.951-.743a1.22 1.22 0 0 0-1.273.282c-.361.386-.724.768-1.085 1.154L25.05 33.23l-2.878 3.058c-.97 1.03-1.94 2.059-2.906 3.088-1.184 1.256-2.368 2.516-3.552 3.773a63.399 63.399 0 0 1-1.475 1.482c-.92.889-1.376 1.678-1.046 2.88l.285 1.153c.118.478.696.756 1.287.625l36.504-8.092c.59-.13.975-.623.853-1.1l-.262-1.064c-.135-.547-.327-1.01-.681-1.399l-.004.004Z"/></g><path fill="url(#e)" d="M48.326 3H65.89c.625 0 1.139.496 1.139 1.113v5.554c0 .61-.508 1.113-1.139 1.113h-.774a.934.934 0 0 0 .241.75c.091.102.02.267-.123.248-.417-.057-1.054-.273-1.523-.998h-9.994c-.624 0-1.138-.496-1.138-1.113V4.113c0-.61.507-1.113 1.138-1.113h-5.39Z"/><g filter="url(#f)"><path fill="url(#g)" fill-opacity=".5" d="M67.382 5.41H51.12c-.578 0-1.054.51-1.054 1.146v4.942c0 .629.47 1.146 1.054 1.146h.717c.024.23-.012.504-.223.773-.084.104-.018.275.114.255.386-.059.976-.282 1.41-1.028h9.253c.579 0 1.054-.51 1.054-1.146V6.556c0-.629-.47-1.146-1.054-1.146h4.991Z"/><path stroke="url(#h)" stroke-width=".8" d="m52.234 12.602-.037-.358H51.12c-.331 0-.654-.304-.654-.745V6.556c0-.445.326-.746.654-.746h11.271c.331 0 .654.305.654.746v4.942c0 .445-.326.746-.654.746h-9.483l-.116.2a1.785 1.785 0 0 1-.581.628c.036-.167.039-.326.023-.47Z"/></g><ellipse cx="54.026" cy="8.983" fill="#fff" rx=".674" ry=".67"/><ellipse cx="56.721" cy="8.983" fill="#fff" rx=".674" ry=".67"/><ellipse cx="59.417" cy="8.983" fill="#fff" rx=".674" ry=".67"/><defs><linearGradient id="a" x1="24.583" x2="44.674" y1="27.2" y2="17.37" gradientUnits="userSpaceOnUse"><stop stop-color="#F1F1FF"/><stop offset="1" stop-color="#CECFFF"/></linearGradient><linearGradient id="e" x1="52.179" x2="61.16" y1="4.883" y2="15.137" gradientUnits="userSpaceOnUse"><stop stop-color="#7273FF"/><stop offset="1" stop-color="#B8B9FF"/></linearGradient><linearGradient id="g" x1="62.91" x2="50.248" y1="6.186" y2="11.673" gradientUnits="userSpaceOnUse"><stop stop-color="#fff"/><stop offset="1" stop-color="#D7D7FF"/></linearGradient><linearGradient id="h" x1="52.028" x2="56.194" y1="5.41" y2="10.703" gradientUnits="userSpaceOnUse"><stop stop-color="#fff"/><stop offset="1" stop-color="#fff" stop-opacity="0"/></linearGradient><filter id="b" width="19.123" height="20.955" x="7.409" y="27.811" color-interpolation-filters="sRGB" filterUnits="userSpaceOnUse"><feFlood flood-opacity="0" result="BackgroundImageFix"/><feGaussianBlur in="BackgroundImageFix" stdDeviation=".837"/><feComposite in2="SourceAlpha" operator="in" result="effect1_backgroundBlur_509_2690"/><feBlend in="SourceGraphic" in2="effect1_backgroundBlur_509_2690" result="shape"/></filter><filter id="c" width="19.173" height="21.473" x="34.509" y="19.266" color-interpolation-filters="sRGB" filterUnits="userSpaceOnUse"><feFlood flood-opacity="0" result="BackgroundImageFix"/><feGaussianBlur in="BackgroundImageFix" stdDeviation=".837"/><feComposite in2="SourceAlpha" operator="in" result="effect1_backgroundBlur_509_2690"/><feBlend in="SourceGraphic" in2="effect1_backgroundBlur_509_2690" result="shape"/></filter><filter id="d" width="42.408" height="23.287" x="11.412" y="27.709" color-interpolation-filters="sRGB" filterUnits="userSpaceOnUse"><feFlood flood-opacity="0" result="BackgroundImageFix"/><feGaussianBlur in="BackgroundImageFix" stdDeviation=".837"/><feComposite in2="SourceAlpha" operator="in" result="effect1_backgroundBlur_509_2690"/><feBlend in="SourceGraphic" in2="effect1_backgroundBlur_509_2690" result="shape"/></filter><filter id="f" width="25.316" height="16.263" x="46.066" y="1.41" color-interpolation-filters="sRGB" filterUnits="userSpaceOnUse"><feFlood flood-opacity="0" result="BackgroundImageFix"/><feGaussianBlur in="BackgroundImageFix" stdDeviation="2"/><feComposite in2="SourceAlpha" operator="in" result="effect1_backgroundBlur_509_2690"/><feBlend in="SourceGraphic" in2="effect1_backgroundBlur_509_2690" result="shape"/></filter></defs></svg>