<svg width="24" height="24" viewBox="0 0 24 24" fill="none" xmlns="http://www.w3.org/2000/svg">
<path d="M17.562 9.22206L17.036 10.1501C16.541 11.0231 16.293 11.4591 15.754 11.4971C15.214 11.5351 14.986 11.2231 14.529 10.5991C14.021 9.90009 13.6952 9.08555 13.581 8.22906C13.474 7.43006 13.421 7.03106 13.291 6.83406C13.085 6.52106 12.669 6.34906 12.359 6.16706C11.542 5.68706 11.133 5.44706 11.026 5.03806C10.918 4.63106 11.154 4.21506 11.626 3.38306C12.098 2.55106 12.334 2.13506 12.735 2.02606C13.135 1.91606 13.545 2.15706 14.362 2.63706C14.672 2.82006 15.026 3.09906 15.396 3.12506C15.628 3.14106 15.995 2.98806 16.728 2.68306C17.5143 2.35384 18.3724 2.23328 19.219 2.33306C19.979 2.42406 20.359 2.47006 20.595 2.96306C20.833 3.45806 20.585 3.89406 20.09 4.76706L19.564 5.69306M17.562 9.22206L17.996 9.47706C18.2238 9.61047 18.4759 9.69708 18.7376 9.7318C18.9993 9.76653 19.2653 9.74868 19.5201 9.67929C19.7748 9.60991 20.0131 9.49039 20.221 9.32774C20.4289 9.16509 20.6023 8.96257 20.731 8.73206C20.9973 8.26437 21.0697 7.71092 20.9327 7.19046C20.7957 6.66999 20.4601 6.22397 19.998 5.94806L19.564 5.69306M17.562 9.22206L19.564 5.69306M6 12.0001L13 7.00006M7 22.0001H14M6 15.0001L11 22.0001M7 13.0001C7 13.5305 6.78929 14.0392 6.41421 14.4143C6.03914 14.7893 5.53043 15.0001 5 15.0001C4.46957 15.0001 3.96086 14.7893 3.58579 14.4143C3.21071 14.0392 3 13.5305 3 13.0001C3 12.4696 3.21071 11.9609 3.58579 11.5858C3.96086 11.2108 4.46957 11.0001 5 11.0001C5.53043 11.0001 6.03914 11.2108 6.41421 11.5858C6.78929 11.9609 7 12.4696 7 13.0001Z" stroke="#82829B" stroke-width="1.5" stroke-linecap="round" stroke-linejoin="round"/>
</svg>
