<svg width="24" height="24" viewBox="0 0 24 24" fill="none" xmlns="http://www.w3.org/2000/svg">
<path d="M18.6209 14.4822C19.3734 14.4822 20.0951 14.7811 20.6273 15.3132C21.1594 15.8454 21.4583 16.5671 21.4583 17.3196V17.9959C21.4583 21.3791 17.4764 23.9403 12.0002 23.9403C6.52388 23.9403 2.54199 21.5124 2.54199 17.9959V17.3196C2.54199 16.5671 2.84094 15.8454 3.37306 15.3132C3.90519 14.7811 4.62691 14.4822 5.37944 14.4822H18.6209ZM18.6209 15.9009H5.37944C5.02691 15.9009 4.68701 16.0321 4.42596 16.2691C4.16491 16.506 4.00142 16.8316 3.96734 17.1825L3.96072 17.3196V17.9959C3.96072 20.525 7.16609 22.5216 12.0002 22.5216C16.6593 22.5216 19.9025 20.5307 20.0358 18.1482L20.0396 17.9959V17.3196C20.0396 16.9671 19.9084 16.6272 19.6715 16.3661C19.4345 16.1051 19.1089 15.9416 18.758 15.9075L18.6209 15.9009ZM12.0002 1.24072C12.7454 1.24072 13.4833 1.38751 14.1719 1.6727C14.8604 1.95789 15.486 2.3759 16.0129 2.90286C16.5399 3.42983 16.9579 4.05542 17.2431 4.74394C17.5283 5.43245 17.6751 6.17039 17.6751 6.91563C17.6751 7.66087 17.5283 8.39881 17.2431 9.08732C16.9579 9.77583 16.5399 10.4014 16.0129 10.9284C15.486 11.4554 14.8604 11.8734 14.1719 12.1586C13.4833 12.4437 12.7454 12.5905 12.0002 12.5905C10.4951 12.5905 9.05165 11.9926 7.9874 10.9284C6.92315 9.86414 6.32526 8.42071 6.32526 6.91563C6.32526 5.41055 6.92315 3.96712 7.9874 2.90286C9.05165 1.83861 10.4951 1.24072 12.0002 1.24072ZM12.0002 2.65945C10.8714 2.65945 9.78878 3.10787 8.99059 3.90606C8.19241 4.70424 7.74399 5.78682 7.74399 6.91563C7.74399 8.04444 8.19241 9.12701 8.99059 9.9252C9.78878 10.7234 10.8714 11.1718 12.0002 11.1718C13.129 11.1718 14.2116 10.7234 15.0097 9.9252C15.8079 9.12701 16.2563 8.04444 16.2563 6.91563C16.2563 5.78682 15.8079 4.70424 15.0097 3.90606C14.2116 3.10787 13.129 2.65945 12.0002 2.65945Z" fill="#82829B"/>
</svg>
