<svg width="24" height="24" viewBox="0 0 24 24" fill="none" xmlns="http://www.w3.org/2000/svg">
<g clip-path="url(#clip0_122_889)">
<path d="M15.3335 17.333C15.3335 17.5098 15.2633 17.6794 15.1382 17.8044C15.0132 17.9294 14.8436 17.9997 14.6668 17.9997H5.3335C5.18683 17.9997 5.04683 18.133 4.92683 18.2197L2.66683 19.9997V9.33301C2.66683 9.1562 2.73707 8.98663 2.86209 8.8616C2.98712 8.73658 3.15669 8.66634 3.3335 8.66634H5.90683V7.33301H3.3335C2.80306 7.33301 2.29436 7.54372 1.91928 7.91879C1.54421 8.29387 1.3335 8.80257 1.3335 9.33301V21.333C1.33449 21.4568 1.36994 21.5779 1.43588 21.6827C1.50182 21.7875 1.59564 21.8719 1.70683 21.9263C1.81395 21.9751 1.93205 21.9945 2.04915 21.9828C2.16624 21.9711 2.27814 21.9286 2.3735 21.8597L5.80683 19.333H14.7668C15.0195 19.3405 15.271 19.296 15.5058 19.2023C15.7406 19.1086 15.9536 18.9677 16.1317 18.7884C16.3099 18.609 16.4493 18.395 16.5413 18.1595C16.6333 17.9241 16.6761 17.6723 16.6668 17.4197V16.6663H15.3335V17.333Z" fill="#82829B"/>
<path d="M20.6668 2.66577H9.3335C8.80306 2.66577 8.29435 2.87649 7.91928 3.25156C7.54421 3.62663 7.3335 4.13534 7.3335 4.66577V12.6658C7.3335 13.1962 7.54421 13.7049 7.91928 14.08C8.29435 14.4551 8.80306 14.6658 9.3335 14.6658H18.3668L21.5535 17.1391C21.6482 17.2091 21.7598 17.2528 21.8769 17.2657C21.994 17.2786 22.1125 17.2602 22.2202 17.2124C22.3336 17.1584 22.4295 17.0734 22.4967 16.9673C22.5639 16.8611 22.5998 16.7381 22.6002 16.6124V4.66577C22.6005 4.14669 22.3989 3.64783 22.0381 3.27462C21.6774 2.9014 21.1856 2.68307 20.6668 2.66577ZM21.3335 15.2924L19.0002 13.4724C18.8838 13.3821 18.7408 13.3329 18.5935 13.3324H9.3335C9.15668 13.3324 8.98712 13.2622 8.86209 13.1372C8.73707 13.0122 8.66683 12.8426 8.66683 12.6658V4.66577C8.66683 4.48896 8.73707 4.31939 8.86209 4.19437C8.98712 4.06934 9.15668 3.9991 9.3335 3.9991H20.6668C20.845 4.01528 21.0112 4.09605 21.134 4.22621C21.2568 4.35637 21.3277 4.52693 21.3335 4.70577V15.2924Z" fill="#82829B"/>
</g>
<defs>
<clipPath id="clip0_122_889">
<rect width="24" height="24" fill="white"/>
</clipPath>
</defs>
</svg>
