<svg width="24" height="24" viewBox="0 0 24 24" fill="none" xmlns="http://www.w3.org/2000/svg">
<g clip-path="url(#clip0_122_1882)">
<path d="M15.333 17.3329C15.333 17.5097 15.2628 17.6793 15.1377 17.8043C15.0127 17.9294 14.8432 17.9996 14.6663 17.9996H5.33301C5.18634 17.9996 5.04634 18.1329 4.92634 18.2196L2.66634 19.9996V9.33293C2.66634 9.15612 2.73658 8.98655 2.8616 8.86153C2.98663 8.7365 3.1562 8.66626 3.33301 8.66626H5.90634V7.33293H3.33301C2.80257 7.33293 2.29387 7.54364 1.91879 7.91872C1.54372 8.29379 1.33301 8.8025 1.33301 9.33293V21.3329C1.334 21.4567 1.36945 21.5778 1.43539 21.6826C1.50133 21.7874 1.59515 21.8718 1.70634 21.9263C1.81346 21.975 1.93157 21.9945 2.04866 21.9828C2.16575 21.9711 2.27766 21.9286 2.37301 21.8596L5.80634 19.3329H14.7663C15.019 19.3404 15.2705 19.2959 15.5053 19.2022C15.7401 19.1085 15.9531 18.9677 16.1313 18.7883C16.3094 18.6089 16.4488 18.3949 16.5408 18.1595C16.6329 17.924 16.6756 17.6722 16.6663 17.4196V16.6663H15.333V17.3329Z" fill="#6224FD"/>
<path d="M20.6663 2.66584H9.33301C8.80257 2.66584 8.29387 2.87655 7.91879 3.25162C7.54372 3.6267 7.33301 4.1354 7.33301 4.66584V12.6658C7.33301 13.1963 7.54372 13.705 7.91879 14.08C8.29387 14.4551 8.80257 14.6658 9.33301 14.6658H18.3663L21.553 17.1392C21.6477 17.2092 21.7593 17.2529 21.8764 17.2658C21.9936 17.2787 22.112 17.2603 22.2197 17.2125C22.3331 17.1585 22.429 17.0735 22.4962 16.9673C22.5635 16.8612 22.5993 16.7382 22.5997 16.6125V4.66584C22.6 4.14675 22.3984 3.64789 22.0377 3.27468C21.6769 2.90147 21.1851 2.68314 20.6663 2.66584ZM21.333 15.2925L18.9997 13.4725C18.8833 13.3822 18.7403 13.333 18.593 13.3325H9.33301C9.1562 13.3325 8.98663 13.2623 8.8616 13.1372C8.73658 13.0122 8.66634 12.8426 8.66634 12.6658V4.66584C8.66634 4.48903 8.73658 4.31946 8.8616 4.19443C8.98663 4.06941 9.1562 3.99917 9.33301 3.99917H20.6663C20.8445 4.01534 21.0107 4.09611 21.1335 4.22627C21.2563 4.35643 21.3272 4.52699 21.333 4.70584V15.2925Z" fill="#6224FD"/>
</g>
<defs>
<clipPath id="clip0_122_1882">
<rect width="24" height="24" fill="white"/>
</clipPath>
</defs>
</svg>
