<svg width="103" height="143" viewBox="0 0 103 143" fill="none" xmlns="http://www.w3.org/2000/svg">
<path d="M99.3196 69.4061C101.59 69.7661 102.71 72.2261 101.82 74.8861L80.6296 137.996C79.7396 140.656 77.1696 142.516 74.8996 142.156L20.9296 133.516C18.6596 133.156 17.5396 130.696 18.4296 128.046L39.6196 64.9361C40.5096 62.2661 43.0796 60.4061 45.3596 60.7761L99.3196 69.4061Z" fill="#5858D1"/>
<mask id="mask0_1_3258" style="mask-type:luminance" maskUnits="userSpaceOnUse" x="11" y="120" width="11" height="7">
<path d="M20.063 126.105L11.123 120.045C11.493 120.295 11.933 120.475 12.423 120.555L21.363 126.615C20.873 126.535 20.433 126.365 20.063 126.105Z" fill="white"/>
</mask>
<g mask="url(#mask0_1_3258)">
<path d="M12.423 120.545L21.363 126.605C20.873 126.525 20.433 126.355 20.063 126.095L11.123 120.035C11.493 120.285 11.933 120.465 12.423 120.545Z" fill="#616161"/>
</g>
<path d="M102.679 73.1948C102.699 72.8948 102.679 72.5948 102.649 72.3148C102.649 72.2848 102.649 72.2548 102.649 72.2248C102.629 72.1048 102.609 71.9948 102.579 71.8848C102.569 71.8348 102.559 71.7948 102.549 71.7448C102.549 71.7348 102.549 71.7148 102.549 71.7048C102.519 71.5848 102.479 71.4548 102.429 71.3448C102.409 71.2948 102.389 71.2448 102.369 71.1948C102.359 71.1748 102.349 71.1448 102.339 71.1248C102.329 71.0948 102.319 71.0748 102.309 71.0448C102.269 70.9548 102.219 70.8748 102.169 70.7848C102.139 70.7248 102.099 70.6748 102.059 70.6148C102.059 70.6148 102.049 70.5948 102.039 70.5848C102.039 70.5848 102.029 70.5648 102.019 70.5548C101.969 70.4848 101.919 70.4148 101.869 70.3548C101.819 70.2948 101.759 70.2248 101.709 70.1648C101.699 70.1548 101.679 70.1348 101.669 70.1248C101.669 70.1248 101.649 70.1048 101.639 70.0948C101.609 70.0648 101.569 70.0248 101.539 69.9948C101.479 69.9448 101.419 69.8848 101.359 69.8448C101.309 69.8048 101.249 69.7648 101.189 69.7248L92.249 63.6648C92.409 63.7748 92.559 63.9048 92.699 64.0448C92.699 64.0448 92.719 64.0648 92.729 64.0748C92.869 64.2148 92.989 64.3648 93.099 64.5348C93.099 64.5448 93.109 64.5548 93.119 64.5648C93.219 64.7248 93.319 64.8948 93.389 65.0648C93.399 65.0848 93.409 65.1148 93.419 65.1348C93.489 65.3148 93.559 65.4948 93.609 65.6848C93.619 65.7248 93.629 65.7748 93.639 65.8248C93.669 65.9648 93.689 66.1048 93.709 66.2548C93.739 66.5348 93.759 66.8348 93.739 67.1348C93.739 67.1648 93.739 67.2048 93.729 67.2348C93.709 67.5048 93.659 67.7948 93.589 68.0748C93.549 68.2648 93.499 68.4448 93.439 68.6348L102.379 74.6948C102.429 74.5448 102.469 74.4048 102.509 74.2548C102.519 74.2148 102.519 74.1748 102.529 74.1248C102.599 73.8348 102.639 73.5548 102.669 73.2848C102.669 73.2548 102.679 73.2148 102.679 73.1848V73.1948Z" fill="url(#paint0_linear_1_3258)"/>
<path d="M66.5059 135.914L75.4559 141.964L21.4859 133.334L12.5459 127.274L66.5059 135.914Z" fill="url(#paint1_linear_1_3258)"/>
<path d="M93.439 68.6453L102.379 74.7053L81.189 137.815L72.249 131.755L93.439 68.6453Z" fill="url(#paint2_linear_1_3258)"/>
<path d="M72.2446 131.755C72.1346 132.085 71.9947 132.395 71.8447 132.695C71.8447 132.705 71.8346 132.715 71.8246 132.725C71.6746 133.015 71.4946 133.295 71.3046 133.555C71.3046 133.565 71.2846 133.575 71.2846 133.585C71.0946 133.845 70.8846 134.085 70.6646 134.305C70.6546 134.315 70.6447 134.325 70.6347 134.335C70.4147 134.555 70.1747 134.755 69.9347 134.935C69.9147 134.945 69.8946 134.965 69.8746 134.975C69.6446 135.135 69.4046 135.285 69.1646 135.405C69.1246 135.425 69.0847 135.445 69.0447 135.465C68.7947 135.585 68.5347 135.685 68.2747 135.765C68.2347 135.775 68.1946 135.785 68.1646 135.795C67.9446 135.855 67.7246 135.895 67.4946 135.915C67.4246 135.915 67.3546 135.925 67.2846 135.935C67.0246 135.945 66.7646 135.935 66.5146 135.905L75.4547 141.965C75.7047 142.005 75.9646 142.005 76.2246 141.995C76.2946 141.995 76.3646 141.995 76.4346 141.975C76.6546 141.955 76.8747 141.915 77.0947 141.855C77.1347 141.845 77.1747 141.835 77.2047 141.825C77.4147 141.765 77.6246 141.685 77.8346 141.595C77.8846 141.575 77.9246 141.545 77.9746 141.525C78.0146 141.505 78.0547 141.485 78.0947 141.465C78.1647 141.435 78.2246 141.405 78.2946 141.365C78.4146 141.295 78.5346 141.225 78.6546 141.145C78.7046 141.105 78.7547 141.075 78.8147 141.035C78.8347 141.025 78.8546 141.005 78.8746 140.995C78.9046 140.975 78.9347 140.955 78.9647 140.935C79.0547 140.865 79.1446 140.795 79.2346 140.715C79.3146 140.645 79.3946 140.575 79.4746 140.495C79.5046 140.465 79.5346 140.435 79.5746 140.395C79.5846 140.385 79.5946 140.375 79.6146 140.355C79.6446 140.325 79.6747 140.295 79.7047 140.265C79.7747 140.195 79.8446 140.115 79.9146 140.035C79.9846 139.955 80.0446 139.875 80.1146 139.795C80.1546 139.745 80.1946 139.685 80.2346 139.635C80.2346 139.625 80.2546 139.615 80.2546 139.605C80.2646 139.585 80.2846 139.565 80.2946 139.555C80.3546 139.465 80.4146 139.385 80.4746 139.295C80.5346 139.205 80.5947 139.105 80.6447 139.015C80.6847 138.935 80.7347 138.865 80.7747 138.785C80.7747 138.775 80.7846 138.765 80.7946 138.755C80.7946 138.735 80.8147 138.725 80.8147 138.715C80.8747 138.595 80.9346 138.485 80.9846 138.365C81.0446 138.225 81.1046 138.085 81.1546 137.945C81.1646 137.905 81.1846 137.865 81.1946 137.825L72.2547 131.765L72.2446 131.755Z" fill="url(#paint3_linear_1_3258)"/>
<g filter="url(#filter0_b_1_3258)">
<path d="M90.929 63.1679C93.199 63.5279 94.319 65.9879 93.429 68.6479L72.239 131.758C71.349 134.418 68.779 136.278 66.509 135.918L12.539 127.278C10.269 126.918 9.14902 124.458 10.039 121.808L31.229 58.6979C32.119 56.0279 34.689 54.1679 36.969 54.5379L90.929 63.1679Z" fill="url(#paint4_linear_1_3258)" fill-opacity="0.8"/>
</g>
<mask id="mask1_1_3258" style="mask-type:luminance" maskUnits="userSpaceOnUse" x="46" y="75" width="7" height="5">
<path d="M46.7568 75.7546L52.4768 79.5446C52.6168 79.6346 52.7468 79.7446 52.8668 79.8746L47.1468 76.0846C47.0268 75.9546 46.8968 75.8446 46.7568 75.7546Z" fill="white"/>
</mask>
<g mask="url(#mask1_1_3258)">
<path d="M46.7568 75.7546L52.4768 79.5446C52.4768 79.5446 52.5568 79.6046 52.5968 79.6346L46.8768 75.8446C46.8768 75.8446 46.7968 75.7846 46.7568 75.7546Z" fill="#5B5B5B"/>
<path d="M46.877 75.8447L52.597 79.6347C52.597 79.6347 52.687 79.7047 52.727 79.7447L47.007 75.9547C47.007 75.9547 46.917 75.8747 46.877 75.8447Z" fill="#5E5E5E"/>
<path d="M47.0068 75.9546L52.7268 79.7446C52.7268 79.7446 52.8168 79.8246 52.8568 79.8646L47.1368 76.0746C47.1368 76.0746 47.0568 75.9946 47.0068 75.9546Z" fill="#616161"/>
<path d="M47.1367 76.0747L52.8567 79.8647L52.8667 79.8747L47.1467 76.0847L47.1367 76.0747Z" fill="#636363"/>
</g>
<path d="M36.7515 108.156C36.1915 108.396 35.6715 108.456 35.1915 108.376C34.8715 108.326 34.5715 108.206 34.3115 108.036L40.0315 111.826C40.2915 111.996 40.5915 112.116 40.9115 112.166C41.3815 112.236 41.9115 112.176 42.4715 111.946L36.7515 108.156Z" fill="url(#paint5_linear_1_3258)"/>
<path d="M68.2036 96.1667L60.5336 88.0167L52.8636 79.8767L47.1436 76.0867L54.8136 84.2367L62.4836 92.3767L68.2036 96.1667Z" fill="url(#paint6_linear_1_3258)"/>
<path d="M60.6329 98.0867L48.6929 103.117L36.7529 108.157L42.4729 111.947L54.4129 106.907L66.3529 101.877L60.6329 98.0867Z" fill="url(#paint7_linear_1_3258)"/>
<path d="M68.8831 98.1335C68.8831 97.9635 68.8831 97.7935 68.8631 97.6335C68.8631 97.6235 68.8631 97.6135 68.8631 97.6035C68.8631 97.5635 68.8431 97.5335 68.8431 97.4935C68.8331 97.4135 68.8131 97.3235 68.7931 97.2435V97.2235C68.7931 97.2035 68.7831 97.1835 68.7731 97.1635C68.7531 97.1035 68.7431 97.0435 68.7131 96.9835C68.6931 96.9435 68.6831 96.9035 68.6631 96.8635C68.6631 96.8435 68.6531 96.8335 68.6431 96.8135C68.6431 96.8035 68.6431 96.7935 68.6231 96.7735C68.5931 96.7135 68.5631 96.6535 68.5231 96.5935C68.5031 96.5635 68.4831 96.5335 68.4631 96.5035C68.4631 96.4935 68.4531 96.4835 68.4431 96.4735C68.4431 96.4635 68.4331 96.4535 68.4231 96.4335C68.3931 96.3835 68.3531 96.3335 68.3131 96.2935C68.2831 96.2535 68.2431 96.2135 68.2131 96.1735L62.4931 92.3835C62.5831 92.4735 62.6631 92.5735 62.7331 92.6835C62.7331 92.6935 62.7431 92.7035 62.7531 92.7135C62.8131 92.8135 62.8731 92.9135 62.9231 93.0235C62.9231 93.0435 62.9331 93.0535 62.9431 93.0735C62.9831 93.1735 63.0231 93.2735 63.0531 93.3735C63.0531 93.3935 63.0631 93.4135 63.0731 93.4335C63.0931 93.5235 63.1131 93.6135 63.1331 93.7035C63.1331 93.7435 63.1531 93.7735 63.1531 93.8135C63.1531 93.8235 63.1531 93.8435 63.1531 93.8535C63.1731 94.0135 63.1831 94.1835 63.1731 94.3535C63.1731 94.4035 63.1731 94.4435 63.1731 94.4935C63.1631 94.6735 63.1431 94.8535 63.1031 95.0435C63.0731 95.1935 63.0331 95.3335 62.9831 95.4735C62.9431 95.6035 62.8931 95.7235 62.8431 95.8435C62.8331 95.8635 62.8231 95.8935 62.8131 95.9135C62.7631 96.0335 62.7031 96.1535 62.6431 96.2635C62.6431 96.2635 62.6431 96.2835 62.6331 96.2835C62.5631 96.4035 62.4831 96.5235 62.4031 96.6435C62.4031 96.6435 62.4031 96.6435 62.3931 96.6535C62.3131 96.7735 62.2231 96.8835 62.1331 96.9935C62.1331 96.9935 62.1131 97.0135 62.1131 97.0235C62.0231 97.1235 61.9231 97.2235 61.8331 97.3235C61.8231 97.3335 61.8131 97.3435 61.7931 97.3535C61.6931 97.4435 61.5931 97.5335 61.4831 97.6135C61.4631 97.6235 61.4531 97.6335 61.4331 97.6535C61.3231 97.7335 61.2031 97.8135 61.0831 97.8835C61.0731 97.8835 61.0631 97.8935 61.0531 97.9035C60.9331 97.9735 60.8031 98.0435 60.6631 98.0935L66.3831 101.884C66.3831 101.884 66.4431 101.854 66.4831 101.844C66.5831 101.794 66.6831 101.744 66.7731 101.694C66.7831 101.694 66.7931 101.684 66.8031 101.674C66.8831 101.624 66.9731 101.574 67.0531 101.514C67.0831 101.494 67.1231 101.464 67.1531 101.444C67.1731 101.434 67.1831 101.424 67.2031 101.404C67.2231 101.394 67.2331 101.384 67.2531 101.374C67.3131 101.324 67.3731 101.274 67.4331 101.224C67.4631 101.204 67.4931 101.174 67.5131 101.144C67.5231 101.134 67.5431 101.124 67.5531 101.114C67.5631 101.104 67.5831 101.094 67.5931 101.074C67.6431 101.024 67.6931 100.974 67.7431 100.924C67.7731 100.894 67.8031 100.854 67.8431 100.814C67.8431 100.814 67.8631 100.794 67.8631 100.784C67.8631 100.784 67.8731 100.774 67.8831 100.764C67.9331 100.714 67.9731 100.654 68.0131 100.604C68.0531 100.554 68.0831 100.504 68.1231 100.454C68.1231 100.454 68.1231 100.454 68.1331 100.444C68.1731 100.384 68.2131 100.324 68.2531 100.264C68.2831 100.204 68.3231 100.154 68.3531 100.094C68.3531 100.094 68.3531 100.074 68.3631 100.074C68.3631 100.074 68.3631 100.074 68.3631 100.064C68.4031 99.9935 68.4431 99.9135 68.4831 99.8435C68.5031 99.8035 68.5131 99.7635 68.5331 99.7235C68.5431 99.7035 68.5531 99.6735 68.5631 99.6535C68.5631 99.6335 68.5831 99.6135 68.5931 99.5935C68.6331 99.4935 68.6731 99.3935 68.7031 99.2835C68.7531 99.1435 68.7931 99.0035 68.8231 98.8535C68.8631 98.6735 68.8831 98.4935 68.8931 98.3035C68.8931 98.2535 68.8931 98.2135 68.8931 98.1635L68.8831 98.1335Z" fill="url(#paint8_linear_1_3258)"/>
<g filter="url(#filter1_b_1_3258)">
<path d="M45.8829 75.4242C46.3529 75.4942 46.7929 75.7142 47.1429 76.0942L54.8129 84.2342L62.4829 92.3742C63.9529 93.9442 62.9229 97.1142 60.6329 98.0842L48.6929 103.124L36.7529 108.164C36.1929 108.404 35.6729 108.464 35.1929 108.384C33.7129 108.154 32.8029 106.554 33.4229 104.644L37.6929 91.4542L41.9629 78.2742C42.5829 76.3542 44.3929 75.1942 45.8629 75.4242H45.8829Z" fill="url(#paint9_linear_1_3258)" fill-opacity="0.6"/>
</g>
<path d="M2.49024 3.85813C2.32234 3.55409 2.25882 3.26254 2.27697 2.98573C2.28719 2.80138 2.33824 2.62441 2.41992 2.46729L0.594536 5.92678C0.512853 6.0839 0.461801 6.26088 0.451588 6.44523C0.438538 6.71579 0.502632 7.01302 0.664855 7.31763L2.49024 3.85813Z" fill="url(#paint10_linear_1_3258)"/>
<path d="M11.075 21.0185L15.2629 16.2056L19.4451 11.3933L21.2705 7.93384L17.0826 12.7467L12.9004 17.559L11.075 21.0185Z" fill="url(#paint11_linear_1_3258)"/>
<path d="M9.55651 16.8333L6.02617 10.3458L2.49016 3.85896L0.664773 7.31846L4.20078 13.8053L7.73112 20.2928L9.55651 16.8333Z" fill="url(#paint12_linear_1_3258)"/>
<path d="M9.9976 21.5156C10.094 21.5059 10.1905 21.4963 10.2801 21.4759C10.2858 21.4753 10.2914 21.4747 10.2971 21.4742C10.3198 21.4719 10.3357 21.4589 10.3584 21.4566C10.4032 21.4464 10.4531 21.4299 10.4973 21.4141L10.5087 21.4129C10.52 21.4118 10.5308 21.405 10.5416 21.3982C10.5745 21.3834 10.6079 21.3744 10.6403 21.3539C10.6618 21.3403 10.684 21.3324 10.7055 21.3188C10.7169 21.3176 10.722 21.3114 10.7327 21.3046C10.7384 21.304 10.7441 21.3035 10.7543 21.291C10.7866 21.2706 10.819 21.2501 10.8507 21.224C10.8666 21.211 10.8825 21.1979 10.8984 21.1849C10.904 21.1843 10.9091 21.1781 10.9142 21.1719C10.9199 21.1713 10.925 21.1651 10.9358 21.1582C10.9625 21.1384 10.9886 21.1129 11.009 21.0879C11.03 21.0686 11.0504 21.0437 11.0714 21.0244L12.8968 17.5649C12.8508 17.621 12.7986 17.6721 12.7402 17.718C12.7345 17.7186 12.7294 17.7248 12.7243 17.7311C12.671 17.7708 12.6177 17.8105 12.5581 17.8451C12.5468 17.8462 12.5417 17.8525 12.5309 17.8593C12.4764 17.8876 12.422 17.916 12.367 17.9387C12.3556 17.9398 12.3448 17.9466 12.3341 17.9534C12.2841 17.9699 12.2342 17.9863 12.1843 18.0028C12.1616 18.005 12.1457 18.0181 12.1231 18.0204C12.1174 18.0209 12.106 18.0221 12.1004 18.0226C12.0107 18.043 11.9149 18.0584 11.8179 18.0623C11.7895 18.0652 11.7668 18.0674 11.7385 18.0703C11.6358 18.0748 11.5326 18.0737 11.4225 18.0618C11.3357 18.0532 11.2541 18.0385 11.1718 18.0181C11.0958 18.0028 11.0249 17.9812 10.954 17.9596C10.9421 17.9551 10.9245 17.9511 10.9126 17.9466C10.8417 17.925 10.7702 17.8978 10.7044 17.87C10.7044 17.87 10.6931 17.8712 10.6925 17.8655C10.6205 17.8326 10.5479 17.794 10.4753 17.7554C10.4753 17.7554 10.4753 17.7554 10.469 17.7503C10.3964 17.7118 10.3289 17.667 10.2614 17.6221C10.2614 17.6221 10.2489 17.6119 10.2433 17.6125C10.1814 17.5671 10.119 17.5161 10.0572 17.4707C10.051 17.4656 10.0447 17.4605 10.0379 17.4497C9.98121 17.3981 9.92449 17.3465 9.87287 17.2886C9.86606 17.2778 9.85983 17.2727 9.84735 17.2625C9.79573 17.2047 9.74354 17.1411 9.69703 17.077C9.69647 17.0714 9.69023 17.0662 9.68399 17.0611C9.63748 16.997 9.5904 16.9273 9.55409 16.8507L7.72871 20.3102C7.72871 20.3102 7.74913 20.3425 7.75707 20.3647C7.7911 20.4185 7.82514 20.4724 7.8586 20.5206C7.85917 20.5263 7.86541 20.5314 7.87165 20.5365C7.90455 20.5791 7.93801 20.6273 7.97658 20.6693C7.98963 20.6851 8.00892 20.7061 8.02196 20.722C8.02877 20.7328 8.03501 20.7379 8.04749 20.7481C8.05429 20.7589 8.06053 20.764 8.06734 20.7748C8.0991 20.806 8.13087 20.8372 8.16263 20.8684C8.17568 20.8842 8.1944 20.8996 8.21255 20.9092C8.21879 20.9143 8.22559 20.9251 8.23183 20.9302C8.23807 20.9353 8.24488 20.9461 8.25679 20.9506C8.28799 20.9761 8.31919 21.0017 8.35038 21.0272C8.3691 21.0425 8.39349 21.0572 8.41845 21.0777C8.41845 21.0777 8.43093 21.0879 8.4366 21.0873C8.4366 21.0873 8.44284 21.0924 8.44908 21.0975C8.48028 21.123 8.51658 21.1423 8.54721 21.1622C8.57784 21.182 8.6079 21.1962 8.63853 21.2161C8.63853 21.2161 8.63853 21.2161 8.64477 21.2212C8.68107 21.2405 8.71738 21.2597 8.75368 21.279C8.78941 21.2926 8.82004 21.3125 8.85578 21.3261C8.85578 21.3261 8.86712 21.325 8.86769 21.3307C8.86769 21.3307 8.86769 21.3307 8.87336 21.3301C8.91534 21.3488 8.96298 21.367 9.00496 21.3857C9.02878 21.3948 9.05204 21.3982 9.07586 21.4072C9.08777 21.4118 9.10536 21.4157 9.11727 21.4203C9.12861 21.4191 9.14109 21.4294 9.153 21.4339C9.21199 21.4509 9.27099 21.4679 9.33508 21.4787C9.41733 21.4991 9.49901 21.5139 9.5858 21.5224C9.69017 21.5349 9.7934 21.536 9.90174 21.5309C9.9301 21.5281 9.95279 21.5258 9.98115 21.523L9.9976 21.5156Z" fill="url(#paint13_linear_1_3258)"/>
<path d="M21.5745 7.18122C21.5615 7.45178 21.4616 7.71384 21.2659 7.93392L17.0837 12.7462L12.9015 17.5585C12.0943 18.4814 10.2378 18.0769 9.55766 16.833L6.02165 10.3461L2.48564 3.85928C2.31774 3.55524 2.25422 3.26368 2.27237 2.98688C2.3189 2.13433 3.17485 1.52741 4.29342 1.77077L12.0173 3.44476L19.7356 5.11932C20.8598 5.36211 21.6205 6.323 21.5734 7.16987L21.5745 7.18122Z" fill="url(#paint14_linear_1_3258)"/>
<defs>
<filter id="filter0_b_1_3258" x="5.7334" y="50.491" width="92.001" height="89.4714" filterUnits="userSpaceOnUse" color-interpolation-filters="sRGB">
<feFlood flood-opacity="0" result="BackgroundImageFix"/>
<feGaussianBlur in="BackgroundImageFix" stdDeviation="2"/>
<feComposite in2="SourceAlpha" operator="in" result="effect1_backgroundBlur_1_3258"/>
<feBlend mode="normal" in="SourceGraphic" in2="effect1_backgroundBlur_1_3258" result="shape"/>
</filter>
<filter id="filter1_b_1_3258" x="29.2256" y="71.3953" width="37.9414" height="41.0222" filterUnits="userSpaceOnUse" color-interpolation-filters="sRGB">
<feFlood flood-opacity="0" result="BackgroundImageFix"/>
<feGaussianBlur in="BackgroundImageFix" stdDeviation="2"/>
<feComposite in2="SourceAlpha" operator="in" result="effect1_backgroundBlur_1_3258"/>
<feBlend mode="normal" in="SourceGraphic" in2="effect1_backgroundBlur_1_3258" result="shape"/>
</filter>
<linearGradient id="paint0_linear_1_3258" x1="97.468" y1="63.6648" x2="97.468" y2="74.6948" gradientUnits="userSpaceOnUse">
<stop stop-color="#494949"/>
<stop offset="0.0001" stop-color="#C9C4FF"/>
<stop offset="1" stop-color="white"/>
</linearGradient>
<linearGradient id="paint1_linear_1_3258" x1="74.3153" y1="134.631" x2="59.1342" y2="161.566" gradientUnits="userSpaceOnUse">
<stop stop-color="#3A3BBA"/>
<stop offset="1" stop-color="#9494FF"/>
</linearGradient>
<linearGradient id="paint2_linear_1_3258" x1="101.54" y1="80.6898" x2="64.8706" y2="92.1181" gradientUnits="userSpaceOnUse">
<stop stop-color="#7273FF"/>
<stop offset="1" stop-color="#B8B9FF"/>
</linearGradient>
<linearGradient id="paint3_linear_1_3258" x1="80.786" y1="133.539" x2="71.2285" y2="143.336" gradientUnits="userSpaceOnUse">
<stop stop-color="#7273FF"/>
<stop offset="1" stop-color="#B8B9FF"/>
</linearGradient>
<linearGradient id="paint4_linear_1_3258" x1="39.3518" y1="88.6448" x2="101.691" y2="77.9608" gradientUnits="userSpaceOnUse">
<stop stop-color="#F1F1FF"/>
<stop offset="1" stop-color="#CECFFF"/>
</linearGradient>
<linearGradient id="paint5_linear_1_3258" x1="42.3236" y1="110.118" x2="37.4069" y2="114.116" gradientUnits="userSpaceOnUse">
<stop stop-color="#3A3BBA"/>
<stop offset="1" stop-color="#9494FF"/>
</linearGradient>
<linearGradient id="paint6_linear_1_3258" x1="67.6173" y1="79.5832" x2="49.6269" y2="93.0831" gradientUnits="userSpaceOnUse">
<stop stop-color="#7273FF"/>
<stop offset="1" stop-color="#B8B9FF"/>
</linearGradient>
<linearGradient id="paint7_linear_1_3258" x1="65.8163" y1="105.028" x2="49.1981" y2="119.732" gradientUnits="userSpaceOnUse">
<stop stop-color="#3A3BBA"/>
<stop offset="1" stop-color="#6565B4"/>
</linearGradient>
<linearGradient id="paint8_linear_1_3258" x1="68.664" y1="94.0378" x2="60.7249" y2="98.9587" gradientUnits="userSpaceOnUse">
<stop stop-color="#7273FF"/>
<stop offset="1" stop-color="#B8B9FF"/>
</linearGradient>
<linearGradient id="paint9_linear_1_3258" x1="62.6239" y1="91.9341" x2="36.3609" y2="101.799" gradientUnits="userSpaceOnUse">
<stop stop-color="#5E5FFF"/>
<stop offset="1" stop-color="#9494FF"/>
</linearGradient>
<linearGradient id="paint10_linear_1_3258" x1="1.69322" y1="7.13005" x2="-0.853362" y2="4.56789" gradientUnits="userSpaceOnUse">
<stop stop-color="#3A3BBA"/>
<stop offset="1" stop-color="#9494FF"/>
</linearGradient>
<linearGradient id="paint11_linear_1_3258" x1="20.4484" y1="19.7454" x2="11.7705" y2="10.3064" gradientUnits="userSpaceOnUse">
<stop stop-color="#7273FF"/>
<stop offset="1" stop-color="#B8B9FF"/>
</linearGradient>
<linearGradient id="paint12_linear_1_3258" x1="5.913" y1="20.1671" x2="-3.36963" y2="11.5747" gradientUnits="userSpaceOnUse">
<stop stop-color="#3A3BBA"/>
<stop offset="1" stop-color="#6565B4"/>
</linearGradient>
<linearGradient id="paint13_linear_1_3258" x1="12.3084" y1="21.159" x2="9.06688" y2="16.9348" gradientUnits="userSpaceOnUse">
<stop stop-color="#7273FF"/>
<stop offset="1" stop-color="#B8B9FF"/>
</linearGradient>
<linearGradient id="paint14_linear_1_3258" x1="13.1591" y1="17.6135" x2="6.07372" y2="3.27596" gradientUnits="userSpaceOnUse">
<stop stop-color="#5E5FFF"/>
<stop offset="1" stop-color="#9494FF"/>
</linearGradient>
</defs>
</svg>
