<svg width="105" height="160" viewBox="0 0 105 160" fill="none" xmlns="http://www.w3.org/2000/svg">
<path d="M11.3007 0.901503C7.94614 2.56454 6.2003 6.38452 5.00008 10.0701C4.63614 11.1689 4.35002 12.2875 4.10277 13.4256C3.23219 17.5114 2.69237 21.6665 2.20125 25.812C1.71014 29.9575 0.927932 33.8197 0.904628 37.811C0.903139 38.2491 0.792612 39.2612 1.20039 39.5838C2.18098 40.366 5.92141 34.0119 6.68266 33.4499C8.41989 32.161 10.1282 30.8039 11.9623 29.6419C15.494 27.4051 19.1517 25.3439 22.9156 23.5363C26.5333 21.7962 30.267 20.2902 34.0873 19.0766C35.9974 18.4698 37.9268 17.9312 39.8851 17.4705C41.4635 17.0962 44.617 17.3114 45.7114 16.108C42.5987 12.5051 38.2439 10.5725 34.339 8.02807C30.2787 5.37604 26.0326 2.97649 21.4529 1.34489C19.2068 0.538975 16.8433 -0.082374 14.4771 0.0750795C13.2794 0.158624 12.2368 0.447134 11.3104 0.901536L11.3007 0.901503Z" fill="url(#paint0_linear_1_3229)"/>
<path d="M85.9331 86.5443C60.2112 112.82 36.1153 113.234 25.4216 111.708L29.5602 117.086C36.3545 125.92 48.0736 129.367 58.5711 125.625L70.6378 121.325C82.3536 117.149 89.3163 105.101 87.0896 92.8663L85.9428 86.5541L85.9331 86.5443Z" fill="url(#paint1_linear_1_3229)"/>
<path d="M85.9312 86.5429L84.5167 78.7987C82.3283 66.7683 79.3443 53.937 73.2956 43.3928C67.6825 33.6191 59.3283 25.4423 50.0932 18.684C48.8987 17.8135 47.6944 16.9916 46.4606 16.2378C26.426 18.9929 9.61319 30.5108 1.35472 37.1416C0.671383 37.6942 0.629236 41.5005 0.557815 42.464C-0.421558 55.6421 2.78401 69.1653 7.64909 81.3508C9.68587 86.4492 12.0931 91.4029 14.8222 96.1629C16.1771 98.5234 17.6197 100.845 19.1405 103.109C20.1575 104.631 21.9551 108.483 23.5976 109.306L25.4294 111.688C36.1134 113.213 60.2093 112.799 85.941 86.5235L85.9312 86.5429Z" fill="url(#paint2_linear_1_3229)"/>
<path d="M14.8858 96.1034C10.0704 103.671 -8.05984 136.173 20.0983 157.861C24.3415 161.127 30.5227 158.452 31.0373 153.128L31.6326 146.968C32.3793 139.221 35.4708 131.882 40.4949 125.941C42.3325 123.767 42.1975 120.534 40.1696 118.522L17.3108 95.8293C16.6025 95.126 15.4241 95.2582 14.8858 96.1034Z" fill="url(#paint3_linear_1_3229)"/>
<path d="M70.6058 73.1357C70.0979 82.2364 70.6525 90.922 72.9521 98.8932C74.5493 104.409 77.7062 109.355 82.0255 113.137L98.3707 127.474C100.758 129.566 104.502 127.894 104.523 124.73C104.62 110.595 101.322 81.184 73.4648 71.2179C72.1132 70.7363 70.6886 71.705 70.6058 73.1357Z" fill="url(#paint4_linear_1_3229)"/>
<path d="M40.7977 54.3641C44.5709 46.8012 42.5439 38.1329 36.2703 35.003C29.9967 31.8731 21.8522 35.4668 18.079 43.0297C14.3058 50.5927 16.3328 59.2609 22.6064 62.3908C28.88 65.5208 37.0245 61.9271 40.7977 54.3641Z" fill="url(#paint5_linear_1_3229)"/>
<path d="M26.7702 59.5858C33.5661 59.6089 39.094 54.1185 39.1172 47.3226C39.1403 40.5267 33.6498 34.9988 26.8539 34.9757C20.058 34.9526 14.5301 40.443 14.507 47.2389C14.4839 54.0348 19.9743 59.5627 26.7702 59.5858Z" fill="url(#paint6_linear_1_3229)"/>
<path d="M53.409 85.1791C57.1822 77.6161 55.1552 68.9479 48.8816 65.818C42.608 62.688 34.4635 66.2817 30.6903 73.8447C26.9172 81.4076 28.9441 90.0759 35.2177 93.2058C41.4913 96.3357 49.6358 92.742 53.409 85.1791Z" fill="url(#paint7_linear_1_3229)"/>
<path d="M39.3913 90.4042C46.1872 90.4273 51.7151 84.9368 51.7382 78.1409C51.7613 71.345 46.2709 65.8171 39.475 65.794C32.6791 65.7709 27.1512 71.2614 27.1281 78.0573C27.105 84.8532 32.5954 90.3811 39.3913 90.4042Z" fill="url(#paint8_linear_1_3229)"/>
<defs>
<linearGradient id="paint0_linear_1_3229" x1="44.4966" y1="7.05369" x2="8.23193" y2="36.1338" gradientUnits="userSpaceOnUse">
<stop stop-color="#7273FF"/>
<stop offset="1" stop-color="#B8B9FF"/>
</linearGradient>
<linearGradient id="paint1_linear_1_3229" x1="85.7888" y1="93.6304" x2="47.815" y2="134.761" gradientUnits="userSpaceOnUse">
<stop stop-color="#7273FF"/>
<stop offset="1" stop-color="#B8B9FF"/>
</linearGradient>
<linearGradient id="paint2_linear_1_3229" x1="30.5651" y1="56.4253" x2="94.6491" y2="47.1386" gradientUnits="userSpaceOnUse">
<stop stop-color="#F1F1FF"/>
<stop offset="1" stop-color="#CECFFF"/>
</linearGradient>
<linearGradient id="paint3_linear_1_3229" x1="41.0977" y1="127.455" x2="5.99142" y2="135.769" gradientUnits="userSpaceOnUse">
<stop stop-color="#5E5FFF"/>
<stop offset="1" stop-color="#9494FF"/>
</linearGradient>
<linearGradient id="paint4_linear_1_3229" x1="103.987" y1="99.8541" x2="71.6678" y2="107.752" gradientUnits="userSpaceOnUse">
<stop stop-color="#5E5FFF"/>
<stop offset="1" stop-color="#9494FF"/>
</linearGradient>
<linearGradient id="paint5_linear_1_3229" x1="28.4866" y1="32.0718" x2="36.1115" y2="62.0651" gradientUnits="userSpaceOnUse">
<stop stop-color="#7273FF"/>
<stop offset="1" stop-color="#B8B9FF"/>
</linearGradient>
<linearGradient id="paint6_linear_1_3229" x1="38.6709" y1="47.3417" x2="17.617" y2="55.9803" gradientUnits="userSpaceOnUse">
<stop stop-color="#5E5FFF"/>
<stop offset="1" stop-color="#9494FF"/>
</linearGradient>
<linearGradient id="paint7_linear_1_3229" x1="41.0979" y1="62.8868" x2="48.7229" y2="92.8801" gradientUnits="userSpaceOnUse">
<stop stop-color="#7273FF"/>
<stop offset="1" stop-color="#B8B9FF"/>
</linearGradient>
<linearGradient id="paint8_linear_1_3229" x1="51.292" y1="78.16" x2="30.2381" y2="86.7987" gradientUnits="userSpaceOnUse">
<stop stop-color="#5E5FFF"/>
<stop offset="1" stop-color="#9494FF"/>
</linearGradient>
</defs>
</svg>
