<svg width="143" height="187" viewBox="0 0 143 187" fill="none" xmlns="http://www.w3.org/2000/svg">
<g filter="url(#filter0_b_1970_2675)">
<path d="M25.1773 108.456C29.858 108.456 34.2267 109.74 37.9713 111.935C42.6684 97.9042 56.0208 87.7592 71.771 87.7592C71.8367 87.7592 71.886 87.7592 71.9517 87.7592C74.8422 74.7366 86.5358 64.998 100.562 64.998C116.739 64.998 129.861 77.9882 129.861 94.0023C129.861 103.903 124.836 112.634 117.199 117.869C132.095 122.08 143 135.655 143 151.751C143 171.228 127.053 186.998 107.394 186.998C97.3753 186.998 88.3095 182.885 81.8386 176.284C75.9426 180.576 68.6669 183.112 60.7836 183.112C44.7542 183.112 31.2048 172.626 26.7376 158.205C26.212 158.238 25.7029 158.286 25.1773 158.286C11.2666 158.286 0 147.133 0 133.363C0 119.592 11.2666 108.439 25.1773 108.439V108.456Z" fill="url(#paint0_linear_1970_2675)" fill-opacity="0.5"/>
</g>
<path d="M77.9548 112.919C77.5234 120.648 77.9944 128.025 79.9474 134.795C81.304 139.479 83.9851 143.68 87.6534 146.892L101.535 159.069C103.563 160.845 106.743 159.425 106.76 156.738C106.842 144.733 104.042 119.755 80.3829 111.29C79.235 110.881 78.0251 111.704 77.9548 112.919Z" fill="url(#paint1_linear_1970_2675)"/>
<g filter="url(#filter1_b_1970_2675)">
<path d="M109.785 152.74C108.982 151.664 107.929 150.887 106.768 150.414C109.28 146.858 109.389 142 106.688 138.381C106.677 138.366 106.668 138.355 106.657 138.34C109.24 135.377 109.538 130.971 107.132 127.749C104.358 124.032 99.0353 123.31 95.2485 126.137C92.9072 127.884 91.7047 130.58 91.7766 133.259C88.2261 130.58 83.1456 130.47 79.3396 133.311C74.734 136.749 73.74 143.197 77.1118 147.714C78.83 150.016 81.3575 151.373 84.0282 151.694C84.0245 153.806 84.6726 155.926 86.0247 157.737C88.7739 161.42 93.5774 162.682 97.7536 161.163C97.8361 161.289 97.9119 161.415 98.002 161.536C100.388 164.732 104.957 165.352 108.214 162.921C111.47 160.49 112.175 155.933 109.789 152.737L109.785 152.74Z" fill="url(#paint2_linear_1970_2675)" fill-opacity="0.5"/>
</g>
<path d="M28.2997 0.900893C24.9452 2.56393 23.1993 6.38391 21.9991 10.0694C21.6352 11.1683 21.349 12.2868 21.1018 13.425C20.2312 17.5108 19.6914 21.6659 19.2003 25.8114C18.7092 29.9569 17.927 33.8191 17.9037 37.8104C17.9022 38.2485 17.7916 39.2606 18.1994 39.5832C19.18 40.3654 22.9204 34.0113 23.6817 33.4492C25.4189 32.1604 27.1272 30.8033 28.9613 29.6413C32.4931 27.4045 36.1507 25.3433 39.9147 23.5356C43.5323 21.7956 47.266 20.2896 51.0863 19.076C52.9964 18.4692 54.9258 17.9306 56.8842 17.4699C58.4625 17.0956 61.616 17.3108 62.7104 16.1073C59.5977 12.5045 55.2429 10.5719 51.338 8.02746C47.2778 5.37543 43.0317 2.97588 38.4519 1.34428C36.2059 0.538365 33.8423 -0.0829843 31.4762 0.0744691C30.2785 0.158014 29.2358 0.446523 28.3094 0.900926L28.2997 0.900893Z" fill="url(#paint3_linear_1970_2675)"/>
<path d="M102.932 86.5438C77.2102 112.819 53.1143 113.234 42.4206 111.708L46.5592 117.086C53.3535 125.919 65.0726 129.367 75.5701 125.625L87.6368 121.324C99.3527 117.149 106.315 105.101 104.089 92.8658L102.942 86.5536L102.932 86.5438Z" fill="url(#paint4_linear_1970_2675)"/>
<path d="M102.93 86.5425L101.516 78.7983C99.3273 66.768 96.3433 53.9366 90.2947 43.3924C84.6815 33.6187 76.3273 25.442 67.0922 18.6836C65.8977 17.8131 64.6934 16.9913 63.4596 16.2375C43.425 18.9925 26.6122 30.5105 18.3537 37.1412C17.6704 37.6938 17.6283 41.5001 17.5568 42.4636C16.5775 55.6417 19.783 69.165 24.6481 81.3504C26.6849 86.4488 29.0921 91.4025 31.8212 96.1625C33.1761 98.523 34.6188 100.845 36.1395 103.109C37.1565 104.631 38.9542 108.482 40.5966 109.306L42.4284 111.687C53.1124 113.213 77.2083 112.798 102.94 86.5231L102.93 86.5425Z" fill="url(#paint5_linear_1970_2675)"/>
<path d="M31.8848 96.1028C27.0694 103.67 8.93918 136.172 37.0974 157.861C41.3405 161.127 47.5217 158.451 48.0363 153.128L48.6316 146.967C49.3783 139.221 52.4699 131.881 57.4939 125.94C59.3315 123.766 59.1965 120.533 57.1687 118.521L34.3098 95.8287C33.6015 95.1253 32.4231 95.2576 31.8848 96.1028Z" fill="url(#paint6_linear_1970_2675)"/>
<path d="M87.6049 73.1354C87.0969 82.236 87.6515 90.9216 89.9511 98.8928C91.5484 104.408 94.7052 109.355 99.0245 113.137L115.37 127.474C117.757 129.565 121.501 127.894 121.522 124.73C121.619 110.595 118.321 81.1837 90.4638 71.2175C89.1122 70.7359 87.6876 71.7046 87.6049 73.1354Z" fill="url(#paint7_linear_1970_2675)"/>
<path d="M57.7967 54.3637C61.5699 46.8007 59.5429 38.1324 53.2693 35.0025C46.9957 31.8726 38.8512 35.4663 35.078 43.0292C31.3049 50.5922 33.3318 59.2604 39.6054 62.3904C45.879 65.5203 54.0235 61.9266 57.7967 54.3637Z" fill="url(#paint8_linear_1970_2675)"/>
<path d="M43.7693 59.5853C50.5652 59.6084 56.0931 54.118 56.1162 47.3221C56.1393 40.5262 50.6488 34.9983 43.8529 34.9752C37.057 34.9521 31.5291 40.4425 31.506 47.2384C31.4829 54.0343 36.9734 59.5622 43.7693 59.5853Z" fill="url(#paint9_linear_1970_2675)"/>
<path d="M70.408 85.1786C74.1812 77.6157 72.1542 68.9474 65.8806 65.8175C59.6071 62.6876 51.4625 66.2812 47.6894 73.8442C43.9162 81.4071 45.9432 90.0754 52.2168 93.2053C58.4903 96.3352 66.6348 92.7415 70.408 85.1786Z" fill="url(#paint10_linear_1970_2675)"/>
<path d="M56.3904 90.4037C63.1863 90.4268 68.7142 84.9364 68.7373 78.1404C68.7604 71.3445 63.2699 65.8166 56.474 65.7935C49.6781 65.7704 44.1502 71.2609 44.1271 78.0568C44.104 84.8527 49.5945 90.3806 56.3904 90.4037Z" fill="url(#paint11_linear_1970_2675)"/>
<defs>
<filter id="filter0_b_1970_2675" x="-4" y="60.998" width="151" height="130" filterUnits="userSpaceOnUse" color-interpolation-filters="sRGB">
<feFlood flood-opacity="0" result="BackgroundImageFix"/>
<feGaussianBlur in="BackgroundImageFix" stdDeviation="2"/>
<feComposite in2="SourceAlpha" operator="in" result="effect1_backgroundBlur_1970_2675"/>
<feBlend mode="normal" in="SourceGraphic" in2="effect1_backgroundBlur_1970_2675" result="shape"/>
</filter>
<filter id="filter1_b_1970_2675" x="71.1133" y="120.411" width="44.0898" height="47.994" filterUnits="userSpaceOnUse" color-interpolation-filters="sRGB">
<feFlood flood-opacity="0" result="BackgroundImageFix"/>
<feGaussianBlur in="BackgroundImageFix" stdDeviation="2"/>
<feComposite in2="SourceAlpha" operator="in" result="effect1_backgroundBlur_1970_2675"/>
<feBlend mode="normal" in="SourceGraphic" in2="effect1_backgroundBlur_1970_2675" result="shape"/>
</filter>
<linearGradient id="paint0_linear_1970_2675" x1="36.931" y1="76.4489" x2="154.24" y2="104.883" gradientUnits="userSpaceOnUse">
<stop stop-color="white"/>
<stop offset="1" stop-color="#D7D7FF"/>
</linearGradient>
<linearGradient id="paint1_linear_1970_2675" x1="106.305" y1="135.611" x2="78.8567" y2="142.319" gradientUnits="userSpaceOnUse">
<stop stop-color="#3A3BBA"/>
<stop offset="1" stop-color="#9494FF"/>
</linearGradient>
<linearGradient id="paint2_linear_1970_2675" x1="115.338" y1="144.389" x2="88.788" y2="122.106" gradientUnits="userSpaceOnUse">
<stop stop-color="white"/>
<stop offset="1" stop-color="#D7D7FF"/>
</linearGradient>
<linearGradient id="paint3_linear_1970_2675" x1="61.4956" y1="7.05308" x2="25.231" y2="36.1332" gradientUnits="userSpaceOnUse">
<stop stop-color="#7273FF"/>
<stop offset="1" stop-color="#B8B9FF"/>
</linearGradient>
<linearGradient id="paint4_linear_1970_2675" x1="102.788" y1="93.63" x2="64.814" y2="134.761" gradientUnits="userSpaceOnUse">
<stop stop-color="#7273FF"/>
<stop offset="1" stop-color="#B8B9FF"/>
</linearGradient>
<linearGradient id="paint5_linear_1970_2675" x1="47.5641" y1="56.4249" x2="111.648" y2="47.1382" gradientUnits="userSpaceOnUse">
<stop stop-color="#F1F1FF"/>
<stop offset="1" stop-color="#CECFFF"/>
</linearGradient>
<linearGradient id="paint6_linear_1970_2675" x1="58.0967" y1="127.454" x2="22.9904" y2="135.768" gradientUnits="userSpaceOnUse">
<stop stop-color="#5E5FFF"/>
<stop offset="1" stop-color="#9494FF"/>
</linearGradient>
<linearGradient id="paint7_linear_1970_2675" x1="120.986" y1="99.8538" x2="88.6668" y2="107.752" gradientUnits="userSpaceOnUse">
<stop stop-color="#5E5FFF"/>
<stop offset="1" stop-color="#9494FF"/>
</linearGradient>
<linearGradient id="paint8_linear_1970_2675" x1="45.4856" y1="32.0714" x2="53.1105" y2="62.0646" gradientUnits="userSpaceOnUse">
<stop stop-color="#7273FF"/>
<stop offset="1" stop-color="#B8B9FF"/>
</linearGradient>
<linearGradient id="paint9_linear_1970_2675" x1="55.6699" y1="47.3412" x2="34.616" y2="55.9799" gradientUnits="userSpaceOnUse">
<stop stop-color="#5E5FFF"/>
<stop offset="1" stop-color="#9494FF"/>
</linearGradient>
<linearGradient id="paint10_linear_1970_2675" x1="58.0969" y1="62.8863" x2="65.7219" y2="92.8796" gradientUnits="userSpaceOnUse">
<stop stop-color="#7273FF"/>
<stop offset="1" stop-color="#B8B9FF"/>
</linearGradient>
<linearGradient id="paint11_linear_1970_2675" x1="68.291" y1="78.1596" x2="47.2371" y2="86.7982" gradientUnits="userSpaceOnUse">
<stop stop-color="#5E5FFF"/>
<stop offset="1" stop-color="#9494FF"/>
</linearGradient>
</defs>
</svg>
