<svg width="168" height="127" viewBox="0 0 168 127" fill="none" xmlns="http://www.w3.org/2000/svg">
<path d="M157.133 0H10.5696C8.52698 0 6.87109 1.65589 6.87109 3.69853V90.5678C6.87109 92.6105 8.52698 94.2664 10.5696 94.2664H157.133C159.176 94.2664 160.832 92.6105 160.832 90.5678V3.69853C160.832 1.65589 159.176 0 157.133 0Z" fill="url(#paint0_linear_1970_2686)"/>
<path d="M167.71 117.439H0L6.87003 90.7266H160.84L167.71 117.439Z" fill="url(#paint1_linear_1970_2686)"/>
<path d="M149.734 78.5497V15.7208C149.734 13.1675 147.665 11.0977 145.111 11.0977L22.588 11.0977C20.0347 11.0977 17.9649 13.1675 17.9649 15.7208V78.5497C17.9649 81.103 20.0347 83.1728 22.588 83.1728L145.111 83.1728C147.665 83.1728 149.734 81.103 149.734 78.5497Z" fill="url(#paint2_linear_1970_2686)"/>
<path d="M0 121.441C0 119.232 1.79086 117.441 4 117.441H163.71C165.919 117.441 167.71 119.232 167.71 121.441V122.521C167.71 124.73 165.919 126.521 163.71 126.521H4.53995C2.03419 126.521 0 124.487 0 121.981V121.441Z" fill="url(#paint3_linear_1970_2686)"/>
<path d="M14.2489 93.8984L10.125 102.738H154.47L151.816 93.8984H14.2489Z" fill="url(#paint4_linear_1970_2686)"/>
<path d="M154.47 102.734H10.125V106.71H154.47V102.734Z" fill="url(#paint5_linear_1970_2686)"/>
<g filter="url(#filter0_b_1970_2686)">
<path d="M131.888 60.9549C137.929 60.9549 142.826 56.0577 142.826 50.0165C142.826 43.9754 137.929 39.0781 131.888 39.0781C125.847 39.0781 120.949 43.9754 120.949 50.0165C120.949 56.0577 125.847 60.9549 131.888 60.9549Z" fill="url(#paint6_linear_1970_2686)" fill-opacity="0.5"/>
</g>
<g filter="url(#filter1_b_1970_2686)">
<path d="M149.79 39.5759C152.343 39.5759 154.413 37.5061 154.413 34.9528C154.413 32.3995 152.343 30.3296 149.79 30.3296C147.237 30.3296 145.167 32.3995 145.167 34.9528C145.167 37.5061 147.237 39.5759 149.79 39.5759Z" fill="url(#paint7_linear_1970_2686)" fill-opacity="0.5"/>
</g>
<g filter="url(#filter2_b_1970_2686)">
<path d="M120.091 75.1243C117.93 75.1243 115.914 75.7244 114.186 76.7498C112.018 70.1945 105.855 65.4546 98.5859 65.4546C98.5555 65.4546 98.5328 65.4546 98.5025 65.4546C97.1684 59.3703 91.7713 54.8203 85.2979 54.8203C77.8315 54.8203 71.775 60.8895 71.775 68.3715C71.775 72.9974 74.0945 77.0764 77.6193 79.5223C70.7441 81.4897 65.7109 87.8323 65.7109 95.3523C65.7109 104.452 73.0712 111.82 82.1446 111.82C86.7685 111.82 90.9527 109.899 93.9393 106.815C96.6605 108.82 100.019 110.005 103.657 110.005C111.055 110.005 117.309 105.105 119.371 98.3679C119.613 98.3831 119.848 98.4059 120.091 98.4059C126.511 98.4059 131.711 93.195 131.711 86.7613C131.711 80.3275 126.511 75.1167 120.091 75.1167V75.1243Z" fill="url(#paint8_linear_1970_2686)" fill-opacity="0.5"/>
</g>
<defs>
<filter id="filter0_b_1970_2686" x="116.949" y="35.0781" width="29.877" height="29.8768" filterUnits="userSpaceOnUse" color-interpolation-filters="sRGB">
<feFlood flood-opacity="0" result="BackgroundImageFix"/>
<feGaussianBlur in="BackgroundImageFix" stdDeviation="2"/>
<feComposite in2="SourceAlpha" operator="in" result="effect1_backgroundBlur_1970_2686"/>
<feBlend mode="normal" in="SourceGraphic" in2="effect1_backgroundBlur_1970_2686" result="shape"/>
</filter>
<filter id="filter1_b_1970_2686" x="141.167" y="26.3296" width="17.2461" height="17.2463" filterUnits="userSpaceOnUse" color-interpolation-filters="sRGB">
<feFlood flood-opacity="0" result="BackgroundImageFix"/>
<feGaussianBlur in="BackgroundImageFix" stdDeviation="2"/>
<feComposite in2="SourceAlpha" operator="in" result="effect1_backgroundBlur_1970_2686"/>
<feBlend mode="normal" in="SourceGraphic" in2="effect1_backgroundBlur_1970_2686" result="shape"/>
</filter>
<filter id="filter2_b_1970_2686" x="61.7109" y="50.8203" width="74" height="65" filterUnits="userSpaceOnUse" color-interpolation-filters="sRGB">
<feFlood flood-opacity="0" result="BackgroundImageFix"/>
<feGaussianBlur in="BackgroundImageFix" stdDeviation="2"/>
<feComposite in2="SourceAlpha" operator="in" result="effect1_backgroundBlur_1970_2686"/>
<feBlend mode="normal" in="SourceGraphic" in2="effect1_backgroundBlur_1970_2686" result="shape"/>
</filter>
<linearGradient id="paint0_linear_1970_2686" x1="83.8515" y1="0" x2="83.8515" y2="94.2664" gradientUnits="userSpaceOnUse">
<stop stop-color="#494949"/>
<stop offset="0.0001" stop-color="#C9C4FF"/>
<stop offset="1" stop-color="white"/>
</linearGradient>
<linearGradient id="paint1_linear_1970_2686" x1="83.855" y1="90.7266" x2="83.855" y2="117.439" gradientUnits="userSpaceOnUse">
<stop stop-color="#494949"/>
<stop offset="0.0001" stop-color="#C9C4FF"/>
<stop offset="1" stop-color="white"/>
</linearGradient>
<linearGradient id="paint2_linear_1970_2686" x1="126.789" y1="81.1665" x2="94.1284" y2="-2.2909" gradientUnits="userSpaceOnUse">
<stop stop-color="#7273FF"/>
<stop offset="1" stop-color="#B8B9FF"/>
</linearGradient>
<linearGradient id="paint3_linear_1970_2686" x1="163.042" y1="119.022" x2="161.767" y2="135.871" gradientUnits="userSpaceOnUse">
<stop stop-color="#7273FF"/>
<stop offset="1" stop-color="#B8B9FF"/>
</linearGradient>
<linearGradient id="paint4_linear_1970_2686" x1="150.451" y1="95.4377" x2="149.05" y2="111.814" gradientUnits="userSpaceOnUse">
<stop stop-color="#7273FF"/>
<stop offset="1" stop-color="#B8B9FF"/>
</linearGradient>
<linearGradient id="paint5_linear_1970_2686" x1="151.853" y1="104.726" x2="151.217" y2="114.289" gradientUnits="userSpaceOnUse">
<stop stop-color="#5E5FFF"/>
<stop offset="1" stop-color="#9494FF"/>
</linearGradient>
<linearGradient id="paint6_linear_1970_2686" x1="137.176" y1="41.1315" x2="118.955" y2="44.8996" gradientUnits="userSpaceOnUse">
<stop stop-color="white"/>
<stop offset="1" stop-color="#D7D7FF"/>
</linearGradient>
<linearGradient id="paint7_linear_1970_2686" x1="152.025" y1="31.1974" x2="144.324" y2="32.7901" gradientUnits="userSpaceOnUse">
<stop stop-color="white"/>
<stop offset="1" stop-color="#D7D7FF"/>
</linearGradient>
<linearGradient id="paint8_linear_1970_2686" x1="114.666" y1="60.1703" x2="60.4508" y2="73.1518" gradientUnits="userSpaceOnUse">
<stop stop-color="white"/>
<stop offset="1" stop-color="#D7D7FF"/>
</linearGradient>
</defs>
</svg>
