<svg width="24" height="14" viewBox="0 0 24 14" fill="none" xmlns="http://www.w3.org/2000/svg">
<path fill-rule="evenodd" clip-rule="evenodd" d="M11.898 12.8516C8.81082 12.886 5.62664 11.0334 1.43437 6.9424C5.71469 2.89745 8.95171 0.99839 12.0492 1C15.1395 1.00161 18.2586 2.89642 22.3025 6.92861C18.1541 10.8884 14.9909 12.8171 11.898 12.8516ZM23.3715 6.5855C19.1359 2.28932 15.6694 0.00188422 12.0497 1.16291e-06C8.43604 -0.00187877 4.84753 2.27556 0.369353 6.57589L0 6.93057L0.363397 7.29136C4.75689 11.6533 8.29428 13.8918 11.9091 13.8515C15.5173 13.8113 19.026 11.5006 23.3635 7.29552L23.7255 6.94456L23.3715 6.5855ZM14.9189 6.43163C14.9189 8.03994 13.5751 9.38611 11.8644 9.38611C10.1538 9.38611 8.80993 8.03994 8.80993 6.43163C8.80993 4.82331 10.1538 3.47715 11.8644 3.47715C13.5751 3.47715 14.9189 4.82331 14.9189 6.43163ZM15.9189 6.43163C15.9189 8.61563 14.1037 10.3861 11.8644 10.3861C9.6252 10.3861 7.80993 8.61563 7.80993 6.43163C7.80993 4.24763 9.6252 2.47715 11.8644 2.47715C14.1037 2.47715 15.9189 4.24763 15.9189 6.43163Z" fill="#CED4DA"/>
</svg>
