<svg width="76" height="76" viewBox="0 0 76 76" fill="none" xmlns="http://www.w3.org/2000/svg">
<path d="M36.0131 9H32.3896V17.851H36.0131V9Z" fill="#5A35B7" stroke="#5A35B7" stroke-width="0.5" stroke-miterlimit="10"/>
<path d="M23.7501 12.4095L20.96 14.7695L26.6002 21.5454L29.3904 19.1854L23.7501 12.4095Z" fill="#5A35B7" stroke="#5A35B7" stroke-width="0.5" stroke-miterlimit="10"/>
<path d="M16.528 22.9663L15.8955 26.582L24.5369 28.118L25.1694 24.5022L16.528 22.9663Z" fill="#5A35B7" stroke="#5A35B7" stroke-width="0.5" stroke-miterlimit="10"/>
<path d="M17.7306 35.7383L19.5518 38.918L27.1509 34.4953L25.3297 31.3157L17.7306 35.7383Z" fill="#5A35B7" stroke="#5A35B7" stroke-width="0.5" stroke-miterlimit="10"/>
<path d="M26.7854 44.7443L30.208 46L33.2091 37.6882L29.7865 36.4324L26.7854 44.7443Z" fill="#5A35B7" stroke="#5A35B7" stroke-width="0.5" stroke-miterlimit="10"/>
<path d="M47.587 14.3366L44.7969 11.9766L39.1566 18.7524L41.9467 21.1125L47.587 14.3366Z" fill="#5A35B7" stroke="#5A35B7" stroke-width="0.5" stroke-miterlimit="10"/>
<path d="M53.8309 25.5547L52.9463 21.9961L44.4297 24.1545L45.3143 27.7131L53.8309 25.5547Z" fill="#5A35B7" stroke="#5A35B7" stroke-width="0.5" stroke-miterlimit="10"/>
<path d="M40.2939 33.3134L39.9497 33.2072L39.9717 33.5689L40.6871 45.3212L40.7096 45.6912L41.0426 45.5321L44.4994 43.8794L44.6555 43.8048L44.6411 43.6317L44.2412 38.8099L48.8332 40.2413L48.998 40.2927L49.104 40.1554L51.4513 37.1138L51.6727 36.8269L51.3279 36.7204L40.2939 33.3134Z" fill="#5A35B7" stroke="#5A35B7" stroke-width="0.5"/>
<path d="M2.50546 51H0V67.8077H2.50546V51Z" fill="#5A35B7"/>
<path d="M5.01229 51H2.50684L6.18436 67.8077H8.69311L5.01229 51Z" fill="#5A35B7"/>
<path d="M17.3805 51H14.875V67.8077H17.3805V51Z" fill="#5A35B7"/>
<path d="M12.367 51H14.8724L11.1949 67.8077H8.68945L12.367 51Z" fill="#5A35B7"/>
<path d="M19.4854 61.1796C19.4854 57.3767 22.1213 54.5469 25.7892 54.5469C29.4571 54.5469 32.0716 57.3767 32.0716 61.1796C32.0716 61.4673 32.0716 61.7989 32.0274 62.1083H21.7478C21.9895 64.2749 23.5489 65.889 25.7892 65.889C27.5026 65.889 28.8424 65.0931 29.3037 64.0539H31.6103C30.9293 66.2428 28.6669 67.8124 25.7892 67.8124C22.1208 67.8124 19.4854 64.9825 19.4854 61.1796ZM25.7892 56.4703C23.5268 56.4703 21.989 58.0621 21.7478 60.251H29.8533C29.5895 58.0399 28.0522 56.4703 25.7897 56.4703H25.7892Z" fill="#5A35B7"/>
<path d="M34.291 61.1796C34.291 57.3767 36.927 54.5469 40.5949 54.5469C44.2628 54.5469 46.8772 57.3767 46.8772 61.1796C46.8772 61.4673 46.8772 61.7989 46.8331 62.1083H36.5534C36.7951 64.2749 38.3545 65.889 40.5949 65.889C42.3083 65.889 43.6481 65.0931 44.1094 64.0539H46.4159C45.735 66.2428 43.4726 67.8124 40.5949 67.8124C36.9265 67.8124 34.291 64.9825 34.291 61.1796ZM40.5949 56.4703C38.3325 56.4703 36.7946 58.0621 36.5534 60.251H44.6589C44.3952 58.0399 42.8578 56.4703 40.5954 56.4703H40.5949Z" fill="#5A35B7"/>
<path d="M55.9252 56.8664H53.1358V67.5009H50.8734V56.8664H48.084V54.8541H50.8734V51.0078H53.1358V54.8546H55.9252V56.8669V56.8664Z" fill="#5A35B7"/>
<path d="M58.2637 67.5044V54.8359H60.5261V67.5044H58.2637Z" fill="#5A35B7"/>
<path d="M63.4131 61.1796C63.4131 57.3767 66.0491 54.5469 69.717 54.5469C73.3849 54.5469 75.9993 57.3767 75.9993 61.1796C75.9993 61.4673 75.9993 61.7989 75.9552 62.1083H65.6755C65.9172 64.2749 67.4766 65.889 69.717 65.889C71.4303 65.889 72.7701 65.0931 73.2314 64.0539H75.538C74.8571 66.2428 72.5946 67.8124 69.717 67.8124C66.0486 67.8124 63.4131 64.9825 63.4131 61.1796ZM69.717 56.4703C67.4546 56.4703 65.9167 58.0621 65.6755 60.251H73.781C73.5173 58.0399 71.9799 56.4703 69.7175 56.4703H69.717Z" fill="#5A35B7"/>
</svg>
