<svg width="41" height="41" viewBox="0 0 41 41" fill="none" xmlns="http://www.w3.org/2000/svg">
<g id="ic-mypage-scrap">
<g id="Group 2085666198">
<g id="Group 2085666195">
<g id="Ellipse 3670">
<circle cx="20.5" cy="20.5" r="20" fill="#F5F1FF"/>
<circle cx="20.5" cy="20.5" r="20" stroke="#E6EBFF"/>
<circle cx="20.5" cy="20.5" r="20" stroke="#E0D8FF"/>
<circle cx="20.5" cy="20.5" r="20" stroke="#E0D8FF"/>
<circle cx="20.5" cy="20.5" r="20" stroke="#E0D8FF"/>
<circle cx="20.5" cy="20.5" r="20" stroke="#E0D8FF"/>
</g>
</g>
</g>
<g id="ic-mypage-scrap_2">
<path id="Vector" d="M14.5 16H13V26.5C13 27.325 13.675 28 14.5 28H25V26.5H14.5V16ZM26.5 13H17.5C16.675 13 16 13.675 16 14.5V23.5C16 24.325 16.675 25 17.5 25H26.5C27.325 25 28 24.325 28 23.5V14.5C28 13.675 27.325 13 26.5 13ZM26.5 23.5H17.5V14.5H26.5V23.5ZM19 18.25H25V19.75H19V18.25ZM19 20.5H22V22H19V20.5ZM19 16H25V17.5H19V16Z" fill="#A180F4"/>
</g>
</g>
</svg>
