<svg width="42" height="41" viewBox="0 0 42 41" fill="none" xmlns="http://www.w3.org/2000/svg">
<circle cx="21" cy="20.5" r="20" fill="#F5F1FF"/>
<circle cx="21" cy="20.5" r="20" stroke="#E6EBFF"/>
<circle cx="21" cy="20.5" r="20" stroke="#E0D8FF"/>
<mask id="path-2-inside-1_26_812" fill="white">
<path d="M19.25 21.0625C17.495 21.0625 14 21.94 14 23.6875V25H24.5V23.6875C24.5 21.94 21.005 21.0625 19.25 21.0625ZM15.755 23.5C16.385 23.065 17.9075 22.5625 19.25 22.5625C20.5925 22.5625 22.115 23.065 22.745 23.5H15.755ZM19.25 19.75C20.6975 19.75 21.875 18.5725 21.875 17.125C21.875 15.6775 20.6975 14.5 19.25 14.5C17.8025 14.5 16.625 15.6775 16.625 17.125C16.625 18.5725 17.8025 19.75 19.25 19.75ZM19.25 16C19.8725 16 20.375 16.5025 20.375 17.125C20.375 17.7475 19.8725 18.25 19.25 18.25C18.6275 18.25 18.125 17.7475 18.125 17.125C18.125 16.5025 18.6275 16 19.25 16ZM24.53 21.1075C25.4 21.7375 26 22.5775 26 23.6875V25H29V23.6875C29 22.1725 26.375 21.31 24.53 21.1075ZM23.75 19.75C25.1975 19.75 26.375 18.5725 26.375 17.125C26.375 15.6775 25.1975 14.5 23.75 14.5C23.345 14.5 22.97 14.5975 22.625 14.7625C23.0975 15.43 23.375 16.2475 23.375 17.125C23.375 18.0025 23.0975 18.82 22.625 19.4875C22.97 19.6525 23.345 19.75 23.75 19.75Z"/>
</mask>
<path d="M19.25 21.0625C17.495 21.0625 14 21.94 14 23.6875V25H24.5V23.6875C24.5 21.94 21.005 21.0625 19.25 21.0625ZM15.755 23.5C16.385 23.065 17.9075 22.5625 19.25 22.5625C20.5925 22.5625 22.115 23.065 22.745 23.5H15.755ZM19.25 19.75C20.6975 19.75 21.875 18.5725 21.875 17.125C21.875 15.6775 20.6975 14.5 19.25 14.5C17.8025 14.5 16.625 15.6775 16.625 17.125C16.625 18.5725 17.8025 19.75 19.25 19.75ZM19.25 16C19.8725 16 20.375 16.5025 20.375 17.125C20.375 17.7475 19.8725 18.25 19.25 18.25C18.6275 18.25 18.125 17.7475 18.125 17.125C18.125 16.5025 18.6275 16 19.25 16ZM24.53 21.1075C25.4 21.7375 26 22.5775 26 23.6875V25H29V23.6875C29 22.1725 26.375 21.31 24.53 21.1075ZM23.75 19.75C25.1975 19.75 26.375 18.5725 26.375 17.125C26.375 15.6775 25.1975 14.5 23.75 14.5C23.345 14.5 22.97 14.5975 22.625 14.7625C23.0975 15.43 23.375 16.2475 23.375 17.125C23.375 18.0025 23.0975 18.82 22.625 19.4875C22.97 19.6525 23.345 19.75 23.75 19.75Z" fill="#A180F4"/>
<path d="M14 25H9V30H14V25ZM24.5 25V30H29.5V25H24.5ZM15.755 23.5L12.914 19.3855L-0.286241 28.5H15.755V23.5ZM22.745 23.5V28.5H38.7862L25.586 19.3855L22.745 23.5ZM24.53 21.1075L25.0755 16.1373L6.29491 14.0761L21.5975 25.1572L24.53 21.1075ZM26 25H21V30H26V25ZM29 25V30H34V25H29ZM22.625 14.7625L20.4677 10.2518L15.1174 12.8107L18.544 17.6513L22.625 14.7625ZM22.625 19.4875L18.544 16.5987L15.1174 21.4393L20.4677 23.9982L22.625 19.4875ZM19.25 16.0625C17.7493 16.0625 15.8047 16.3985 14.1079 17.0781C13.2555 17.4195 12.1516 17.9705 11.1808 18.8674C10.1751 19.7963 9 21.4172 9 23.6875H19C19 25.0841 18.2617 25.9399 17.9663 26.2129C17.7056 26.4537 17.5851 26.4577 17.8259 26.3612C18.0202 26.2834 18.3039 26.1998 18.6261 26.1384C18.9566 26.0753 19.1854 26.0625 19.25 26.0625V16.0625ZM9 23.6875V25H19V23.6875H9ZM14 30H24.5V20H14V30ZM29.5 25V23.6875H19.5V25H29.5ZM29.5 23.6875C29.5 21.4172 28.3249 19.7963 27.3192 18.8674C26.3484 17.9705 25.2445 17.4195 24.3921 17.0781C22.6953 16.3985 20.7507 16.0625 19.25 16.0625V26.0625C19.3146 26.0625 19.5434 26.0753 19.8739 26.1384C20.1961 26.1998 20.4798 26.2834 20.6741 26.3612C20.9149 26.4577 20.7944 26.4537 20.5337 26.2129C20.2383 25.9399 19.5 25.0841 19.5 23.6875H29.5ZM18.596 27.6145C18.4802 27.6944 18.399 27.7386 18.3712 27.7534C18.3394 27.7702 18.331 27.7729 18.35 27.7647C18.391 27.7471 18.4826 27.712 18.6146 27.6741C18.7442 27.6369 18.8799 27.6065 19.006 27.5866C19.1351 27.5662 19.218 27.5625 19.25 27.5625V17.5625C18.0054 17.5625 16.8159 17.7867 15.856 18.0621C14.9707 18.3162 13.8558 18.7353 12.914 19.3855L18.596 27.6145ZM19.25 27.5625C19.282 27.5625 19.3649 27.5662 19.494 27.5866C19.6201 27.6065 19.7558 27.6369 19.8854 27.6741C20.0174 27.712 20.109 27.7471 20.15 27.7647C20.169 27.7729 20.1606 27.7702 20.1288 27.7534C20.101 27.7386 20.0198 27.6944 19.904 27.6145L25.586 19.3855C24.6442 18.7353 23.5293 18.3162 22.644 18.0621C21.6841 17.7867 20.4946 17.5625 19.25 17.5625V27.5625ZM22.745 18.5H15.755V28.5H22.745V18.5ZM19.25 24.75C23.4589 24.75 26.875 21.3339 26.875 17.125H16.875C16.875 15.8111 17.9361 14.75 19.25 14.75V24.75ZM26.875 17.125C26.875 12.9161 23.4589 9.5 19.25 9.5V19.5C17.9361 19.5 16.875 18.4389 16.875 17.125H26.875ZM19.25 9.5C15.0411 9.5 11.625 12.9161 11.625 17.125H21.625C21.625 18.4389 20.5639 19.5 19.25 19.5V9.5ZM11.625 17.125C11.625 21.3339 15.0411 24.75 19.25 24.75V14.75C20.5639 14.75 21.625 15.8111 21.625 17.125H11.625ZM19.25 21C17.1111 21 15.375 19.2639 15.375 17.125H25.375C25.375 13.7411 22.6339 11 19.25 11V21ZM15.375 17.125C15.375 14.9861 17.1111 13.25 19.25 13.25V23.25C22.6339 23.25 25.375 20.5089 25.375 17.125H15.375ZM19.25 13.25C21.3889 13.25 23.125 14.9861 23.125 17.125H13.125C13.125 20.5089 15.8661 23.25 19.25 23.25V13.25ZM23.125 17.125C23.125 19.2639 21.3889 21 19.25 21V11C15.8661 11 13.125 13.7411 13.125 17.125H23.125ZM21.5975 25.1572C21.6339 25.1836 21.4821 25.0847 21.3137 24.8065C21.1213 24.4885 21 24.0857 21 23.6875H31C31 20.4721 29.1625 18.2888 27.4625 17.0578L21.5975 25.1572ZM21 23.6875V25H31V23.6875H21ZM26 30H29V20H26V30ZM34 25V23.6875H24V25H34ZM34 23.6875C34 19.7703 30.7354 17.9386 29.6395 17.4069C28.1059 16.6627 26.3997 16.2827 25.0755 16.1373L23.9845 26.0777C24.2035 26.1017 24.4705 26.149 24.7346 26.2185C25.0065 26.29 25.1887 26.3623 25.2742 26.4038C25.3949 26.4623 25.1874 26.3897 24.8913 26.0698C24.5493 25.7002 24 24.8795 24 23.6875H34ZM23.75 24.75C27.9589 24.75 31.375 21.3339 31.375 17.125H21.375C21.375 15.8111 22.4361 14.75 23.75 14.75V24.75ZM31.375 17.125C31.375 12.9161 27.9589 9.5 23.75 9.5V19.5C22.4361 19.5 21.375 18.4389 21.375 17.125H31.375ZM23.75 9.5C22.5153 9.5 21.4071 9.80256 20.4677 10.2518L24.7823 19.2732C24.5329 19.3924 24.1746 19.5 23.75 19.5V9.5ZM18.544 17.6513C18.437 17.5002 18.375 17.3138 18.375 17.125H28.375C28.375 15.1812 27.758 13.3598 26.706 11.8737L18.544 17.6513ZM18.375 17.125C18.375 16.9362 18.437 16.7498 18.544 16.5987L26.706 22.3763C27.758 20.8902 28.375 19.0688 28.375 17.125H18.375ZM20.4677 23.9982C21.4071 24.4474 22.5153 24.75 23.75 24.75V14.75C24.1747 14.75 24.5329 14.8576 24.7823 14.9768L20.4677 23.9982Z" fill="#E6EBFF" mask="url(#path-2-inside-1_26_812)"/>
<path d="M14 25H9V30H14V25ZM24.5 25V30H29.5V25H24.5ZM15.755 23.5L12.914 19.3855L-0.286241 28.5H15.755V23.5ZM22.745 23.5V28.5H38.7862L25.586 19.3855L22.745 23.5ZM24.53 21.1075L25.0755 16.1373L6.29491 14.0761L21.5975 25.1572L24.53 21.1075ZM26 25H21V30H26V25ZM29 25V30H34V25H29ZM22.625 14.7625L20.4677 10.2518L15.1174 12.8107L18.544 17.6513L22.625 14.7625ZM22.625 19.4875L18.544 16.5987L15.1174 21.4393L20.4677 23.9982L22.625 19.4875ZM19.25 16.0625C17.7493 16.0625 15.8047 16.3985 14.1079 17.0781C13.2555 17.4195 12.1516 17.9705 11.1808 18.8674C10.1751 19.7963 9 21.4172 9 23.6875H19C19 25.0841 18.2617 25.9399 17.9663 26.2129C17.7056 26.4537 17.5851 26.4577 17.8259 26.3612C18.0202 26.2834 18.3039 26.1998 18.6261 26.1384C18.9566 26.0753 19.1854 26.0625 19.25 26.0625V16.0625ZM9 23.6875V25H19V23.6875H9ZM14 30H24.5V20H14V30ZM29.5 25V23.6875H19.5V25H29.5ZM29.5 23.6875C29.5 21.4172 28.3249 19.7963 27.3192 18.8674C26.3484 17.9705 25.2445 17.4195 24.3921 17.0781C22.6953 16.3985 20.7507 16.0625 19.25 16.0625V26.0625C19.3146 26.0625 19.5434 26.0753 19.8739 26.1384C20.1961 26.1998 20.4798 26.2834 20.6741 26.3612C20.9149 26.4577 20.7944 26.4537 20.5337 26.2129C20.2383 25.9399 19.5 25.0841 19.5 23.6875H29.5ZM18.596 27.6145C18.4802 27.6944 18.399 27.7386 18.3712 27.7534C18.3394 27.7702 18.331 27.7729 18.35 27.7647C18.391 27.7471 18.4826 27.712 18.6146 27.6741C18.7442 27.6369 18.8799 27.6065 19.006 27.5866C19.1351 27.5662 19.218 27.5625 19.25 27.5625V17.5625C18.0054 17.5625 16.8159 17.7867 15.856 18.0621C14.9707 18.3162 13.8558 18.7353 12.914 19.3855L18.596 27.6145ZM19.25 27.5625C19.282 27.5625 19.3649 27.5662 19.494 27.5866C19.6201 27.6065 19.7558 27.6369 19.8854 27.6741C20.0174 27.712 20.109 27.7471 20.15 27.7647C20.169 27.7729 20.1606 27.7702 20.1288 27.7534C20.101 27.7386 20.0198 27.6944 19.904 27.6145L25.586 19.3855C24.6442 18.7353 23.5293 18.3162 22.644 18.0621C21.6841 17.7867 20.4946 17.5625 19.25 17.5625V27.5625ZM22.745 18.5H15.755V28.5H22.745V18.5ZM19.25 24.75C23.4589 24.75 26.875 21.3339 26.875 17.125H16.875C16.875 15.8111 17.9361 14.75 19.25 14.75V24.75ZM26.875 17.125C26.875 12.9161 23.4589 9.5 19.25 9.5V19.5C17.9361 19.5 16.875 18.4389 16.875 17.125H26.875ZM19.25 9.5C15.0411 9.5 11.625 12.9161 11.625 17.125H21.625C21.625 18.4389 20.5639 19.5 19.25 19.5V9.5ZM11.625 17.125C11.625 21.3339 15.0411 24.75 19.25 24.75V14.75C20.5639 14.75 21.625 15.8111 21.625 17.125H11.625ZM19.25 21C17.1111 21 15.375 19.2639 15.375 17.125H25.375C25.375 13.7411 22.6339 11 19.25 11V21ZM15.375 17.125C15.375 14.9861 17.1111 13.25 19.25 13.25V23.25C22.6339 23.25 25.375 20.5089 25.375 17.125H15.375ZM19.25 13.25C21.3889 13.25 23.125 14.9861 23.125 17.125H13.125C13.125 20.5089 15.8661 23.25 19.25 23.25V13.25ZM23.125 17.125C23.125 19.2639 21.3889 21 19.25 21V11C15.8661 11 13.125 13.7411 13.125 17.125H23.125ZM21.5975 25.1572C21.6339 25.1836 21.4821 25.0847 21.3137 24.8065C21.1213 24.4885 21 24.0857 21 23.6875H31C31 20.4721 29.1625 18.2888 27.4625 17.0578L21.5975 25.1572ZM21 23.6875V25H31V23.6875H21ZM26 30H29V20H26V30ZM34 25V23.6875H24V25H34ZM34 23.6875C34 19.7703 30.7354 17.9386 29.6395 17.4069C28.1059 16.6627 26.3997 16.2827 25.0755 16.1373L23.9845 26.0777C24.2035 26.1017 24.4705 26.149 24.7346 26.2185C25.0065 26.29 25.1887 26.3623 25.2742 26.4038C25.3949 26.4623 25.1874 26.3897 24.8913 26.0698C24.5493 25.7002 24 24.8795 24 23.6875H34ZM23.75 24.75C27.9589 24.75 31.375 21.3339 31.375 17.125H21.375C21.375 15.8111 22.4361 14.75 23.75 14.75V24.75ZM31.375 17.125C31.375 12.9161 27.9589 9.5 23.75 9.5V19.5C22.4361 19.5 21.375 18.4389 21.375 17.125H31.375ZM23.75 9.5C22.5153 9.5 21.4071 9.80256 20.4677 10.2518L24.7823 19.2732C24.5329 19.3924 24.1746 19.5 23.75 19.5V9.5ZM18.544 17.6513C18.437 17.5002 18.375 17.3138 18.375 17.125H28.375C28.375 15.1812 27.758 13.3598 26.706 11.8737L18.544 17.6513ZM18.375 17.125C18.375 16.9362 18.437 16.7498 18.544 16.5987L26.706 22.3763C27.758 20.8902 28.375 19.0688 28.375 17.125H18.375ZM20.4677 23.9982C21.4071 24.4474 22.5153 24.75 23.75 24.75V14.75C24.1747 14.75 24.5329 14.8576 24.7823 14.9768L20.4677 23.9982Z" fill="#E0D8FF" mask="url(#path-2-inside-1_26_812)"/>
</svg>
