<svg width="41" height="40" viewBox="0 0 41 40" fill="none" xmlns="http://www.w3.org/2000/svg">
<path d="M31.708 12.1452L34.5948 9.25842L31.708 6.37166L28.8213 9.25842L31.708 12.1452ZM31.208 6.89886L31.208 9.25842L32.208 9.25842L32.208 6.89886L31.208 6.89886Z" fill="#4B5BEA" fill-opacity="0.23"/>
<path d="M19.9102 6.2463L22.7969 3.35955L19.9102 0.472799L17.0234 3.35955L19.9102 6.2463ZM19.4102 1L19.4102 3.35955L20.4102 3.35955L20.4102 1L19.4102 1Z" fill="#914BEA"/>
<path d="M8.89893 12.1452L11.7857 9.25842L8.89893 6.37166L6.01217 9.25842L8.89893 12.1452ZM8.39893 6.89886L8.39893 9.25842L9.39893 9.25842L9.39893 6.89886L8.39893 6.89886Z" fill="#4B5BEA" fill-opacity="0.23"/>
<path d="M38 21.9766L40.8868 19.0899L38 16.2031L35.1132 19.0899L38 21.9766ZM37.5 16.7303L37.5 19.0899L38.5 19.0899L38.5 16.7303L37.5 16.7303Z" fill="#914BEA"/>
<path d="M3 21.9766L5.88675 19.0899L3 16.2031L0.113248 19.0899L3 21.9766ZM2.5 16.7303L2.5 19.0899L3.5 19.0899L3.5 16.7303L2.5 16.7303Z" fill="#914BEA"/>
<path d="M8.89893 34.5609L11.7857 31.6741L8.89893 28.7874L6.01217 31.6741L8.89893 34.5609ZM8.39893 29.3146L8.39893 31.6741L9.39893 31.6741L9.39893 29.3146L8.39893 29.3146Z" fill="#4B5BEA" fill-opacity="0.23"/>
<path d="M20.6968 39.28L23.5835 36.3932L20.6968 33.5065L17.81 36.3932L20.6968 39.28ZM20.1968 34.0337L20.1968 36.3932L21.1968 36.3932L21.1968 34.0337L20.1968 34.0337Z" fill="#914BEA"/>
<path d="M31.708 33.3811L34.5948 30.4944L31.708 27.6076L28.8213 30.4944L31.708 33.3811ZM31.208 28.1348L31.208 30.4944L32.208 30.4944L32.208 28.1348L31.208 28.1348Z" fill="#4B5BEA" fill-opacity="0.23"/>
</svg>
