<svg width="35" height="35" viewBox="0 0 35 35" fill="none" xmlns="http://www.w3.org/2000/svg">
<circle cx="17.5" cy="17.5" r="17" fill="#F5F1FF" stroke="#E0D8FF"/>
<g clip-path="url(#clip0_110_579)">
<path d="M17.3616 16.8775C16.7104 16.8775 16.0859 16.6188 15.6254 16.1584C15.1649 15.6979 14.9062 15.0734 14.9062 14.4222C14.9062 13.771 15.1649 13.1464 15.6254 12.686C16.0859 12.2255 16.7104 11.9668 17.3616 11.9668C18.0128 11.9668 18.6373 12.2255 19.0978 12.686C19.5583 13.1464 19.817 13.771 19.817 14.4222C19.817 15.0734 19.5583 15.6979 19.0978 16.1584C18.6373 16.6188 18.0128 16.8775 17.3616 16.8775ZM17.3616 12.9489C16.5464 12.9489 15.8884 13.607 15.8884 14.4222C15.8884 15.2373 16.5464 15.8954 17.3616 15.8954C18.1768 15.8954 18.8348 15.2373 18.8348 14.4222C18.8348 13.607 18.1768 12.9489 17.3616 12.9489Z" fill="#9470ED"/>
<path d="M23.2589 20.8061C22.9839 20.8061 22.7679 20.59 22.7679 20.315C22.7679 20.04 22.9839 19.8239 23.2589 19.8239C23.5339 19.8239 23.75 19.6079 23.75 19.3329C23.75 18.6817 23.4913 18.0571 23.0308 17.5967C22.5704 17.1362 21.9458 16.8775 21.2946 16.8775H20.3125C20.0375 16.8775 19.8214 16.6614 19.8214 16.3864C19.8214 16.1114 20.0375 15.8954 20.3125 15.8954C21.1277 15.8954 21.7857 15.2373 21.7857 14.4222C21.7857 13.607 21.1277 12.9489 20.3125 12.9489C20.0375 12.9489 19.8214 12.7329 19.8214 12.4579C19.8214 12.1829 20.0375 11.9668 20.3125 11.9668C20.9637 11.9668 21.5882 12.2255 22.0487 12.686C22.5092 13.1464 22.7679 13.771 22.7679 14.4222C22.7679 15.0311 22.5518 15.5811 22.1786 16.0132C23.642 16.4061 24.7321 17.7418 24.7321 19.3329C24.7321 20.148 24.0741 20.8061 23.2589 20.8061ZM11.4732 20.8061C10.658 20.8061 10 20.148 10 19.3329C10 17.7418 11.0804 16.4061 12.5536 16.0132C12.1902 15.5811 11.9643 15.0311 11.9643 14.4222C11.9643 13.771 12.223 13.1464 12.6834 12.686C13.1439 12.2255 13.7684 11.9668 14.4196 11.9668C14.6946 11.9668 14.9107 12.1829 14.9107 12.4579C14.9107 12.7329 14.6946 12.9489 14.4196 12.9489C13.6045 12.9489 12.9464 13.607 12.9464 14.4222C12.9464 15.2373 13.6045 15.8954 14.4196 15.8954C14.6946 15.8954 14.9107 16.1114 14.9107 16.3864C14.9107 16.6614 14.6946 16.8775 14.4196 16.8775H13.4375C12.7863 16.8775 12.1618 17.1362 11.7013 17.5967C11.2408 18.0571 10.9821 18.6817 10.9821 19.3329C10.9821 19.6079 11.1982 19.8239 11.4732 19.8239C11.7482 19.8239 11.9643 20.04 11.9643 20.315C11.9643 20.59 11.7482 20.8061 11.4732 20.8061ZM20.3125 23.7525H14.4196C13.6045 23.7525 12.9464 23.0945 12.9464 22.2793V21.2972C12.9464 19.4016 14.4884 17.8597 16.3839 17.8597H18.3482C20.2437 17.8597 21.7857 19.4016 21.7857 21.2972V22.2793C21.7857 23.0945 21.1277 23.7525 20.3125 23.7525ZM16.3839 18.8418C15.7327 18.8418 15.1082 19.1005 14.6477 19.561C14.1873 20.0214 13.9286 20.646 13.9286 21.2972V22.2793C13.9286 22.5543 14.1446 22.7704 14.4196 22.7704H20.3125C20.5875 22.7704 20.8036 22.5543 20.8036 22.2793V21.2972C20.8036 20.646 20.5449 20.0214 20.0844 19.561C19.6239 19.1005 18.9994 18.8418 18.3482 18.8418H16.3839Z" fill="#9470ED"/>
</g>
<defs>
<clipPath id="clip0_110_579">
<rect width="14.7321" height="15.7143" fill="white" transform="translate(10 10)"/>
</clipPath>
</defs>
</svg>
