<svg width="17" height="18" viewBox="0 0 17 18" fill="none" xmlns="http://www.w3.org/2000/svg">
<path id="ic-study-recent-visit" d="M8.33333 0.666748C3.73333 0.666748 0 4.40008 0 9.00008C0 13.6001 3.73333 17.3334 8.33333 17.3334C12.9333 17.3334 16.6667 13.6001 16.6667 9.00008C16.6667 4.40008 12.9333 0.666748 8.33333 0.666748ZM8.33333 15.6667C4.65833 15.6667 1.66667 12.6751 1.66667 9.00008C1.66667 5.32508 4.65833 2.33341 8.33333 2.33341C12.0083 2.33341 15 5.32508 15 9.00008C15 12.6751 12.0083 15.6667 8.33333 15.6667ZM12.1583 5.31675L6.66667 10.8084L4.50833 8.65841L3.33333 9.83341L6.66667 13.1667L13.3333 6.50008L12.1583 5.31675Z" fill="black"/>
</svg>
