<svg width="27" height="27" viewBox="0 0 27 27" fill="none" xmlns="http://www.w3.org/2000/svg">
<circle cx="13.5" cy="13.5" r="13.5" fill="#D9D9D9"/>
<path d="M20.1103 9.2402C20.2669 9.3942 20.3548 9.60295 20.3548 9.8206C20.3548 10.0383 20.2669 10.247 20.1103 10.401L12.029 18.3404C11.8723 18.4943 11.6598 18.5806 11.4382 18.5806C11.2167 18.5806 11.0042 18.4943 10.8475 18.3404L7.22478 14.7814C7.07693 14.6257 6.99638 14.4197 7.00012 14.2069C7.00387 13.994 7.09161 13.7908 7.24484 13.6403C7.39809 13.4897 7.60485 13.4035 7.82153 13.3999C8.03821 13.3962 8.24788 13.4753 8.40633 13.6206L11.4382 16.5992L18.9288 9.2402C19.0855 9.08639 19.298 9 19.5196 9C19.7411 9 19.9536 9.08639 20.1103 9.2402Z" fill="white"/>
</svg>
