<svg width="25" height="24" viewBox="0 0 25 24" fill="none" xmlns="http://www.w3.org/2000/svg">
<path fill-rule="evenodd" clip-rule="evenodd" d="M12.4422 4.57405C12.746 4.57405 12.9922 4.80426 12.9922 5.08824V18.1774C12.9922 18.4614 12.746 18.6916 12.4422 18.6916C12.1385 18.6916 11.8922 18.4614 11.8922 18.1774V5.08824C11.8922 4.80426 12.1385 4.57405 12.4422 4.57405Z" fill="#82829B"/>
<path fill-rule="evenodd" clip-rule="evenodd" d="M4.89188 11.6328C4.89188 11.3488 5.13812 11.1186 5.44188 11.1186L19.4426 11.1186C19.7463 11.1186 19.9926 11.3488 19.9926 11.6328C19.9926 11.9168 19.7463 12.147 19.4426 12.147L5.44188 12.147C5.13812 12.147 4.89188 11.9168 4.89188 11.6328Z" fill="#82829B"/>
</svg>
