<svg width="20" height="20" viewBox="0 0 20 20" fill="none" xmlns="http://www.w3.org/2000/svg">
<circle cx="10" cy="10" r="10" fill="#6224FD"/>
<path d="M14.0167 6.83316C14.1144 6.94032 14.1693 7.08558 14.1693 7.23703C14.1693 7.38848 14.1144 7.53374 14.0167 7.6409L8.974 13.1655C8.87619 13.2726 8.7436 13.3327 8.60536 13.3327C8.46712 13.3327 8.33453 13.2726 8.23672 13.1655L5.9762 10.689C5.88394 10.5807 5.83368 10.4373 5.83602 10.2892C5.83835 10.1411 5.8931 9.99971 5.98872 9.89495C6.08434 9.7902 6.21336 9.73021 6.34857 9.72766C6.48378 9.7251 6.61461 9.78016 6.71348 9.88124L8.60536 11.9539L13.2794 6.83316C13.3772 6.72613 13.5098 6.66602 13.6481 6.66602C13.7863 6.66602 13.9189 6.72613 14.0167 6.83316Z" fill="white"/>
</svg>
