<svg width="110" height="62" viewBox="0 0 110 62" fill="none" xmlns="http://www.w3.org/2000/svg">
<path d="M0 0H101.426C105.032 0 108 2.88112 108 6.46406L108 38.7279C108 42.2739 105.07 45.192 101.426 45.192H96.9558C96.8056 46.4848 97.031 48.0362 98.3457 49.5506C98.8717 50.1416 98.4584 51.102 97.632 50.9912C95.2278 50.6588 91.5464 49.4029 88.8417 45.192H31.128C27.5218 45.192 24.5541 42.3109 24.5541 38.7279V6.46406C24.5541 2.91806 27.4842 0 31.128 0H0Z" fill="url(#paint0_linear_1_2258)"/>
<g filter="url(#filter0_b_1_2258)">
<path d="M110 14H16.087C12.7478 14 10 16.9662 10 20.6548V49.3657C10 53.0164 12.713 56.0206 16.087 56.0206H20.2261C20.3652 57.3516 20.1565 58.9487 18.9391 60.5079C18.4522 61.1163 18.8348 62.105 19.6 61.9909C21.8261 61.6487 25.2348 60.3557 27.7391 56.0206H81.1777C84.5169 56.0206 87.2647 53.0544 87.2647 49.3657V20.6548C87.2647 17.0042 84.5517 14 81.1777 14H110Z" fill="url(#paint1_linear_1_2258)" fill-opacity="0.5"/>
<path d="M20.6239 55.979L20.5864 55.6206H20.2261H16.087C12.9682 55.6206 10.4 52.8314 10.4 49.3657V20.6548C10.4 17.1543 13.0002 14.4 16.087 14.4H81.1777C84.2965 14.4 86.8647 17.1892 86.8647 20.6548V49.3657C86.8647 52.8663 84.2645 55.6206 81.1777 55.6206H27.7391H27.5083L27.3928 55.8205C24.9603 60.0313 21.6695 61.2679 19.54 61.5955C19.3729 61.62 19.2423 61.5396 19.1685 61.3648C19.0899 61.1787 19.1078 60.9373 19.2514 60.7578L19.2544 60.754C20.5485 59.0967 20.7714 57.39 20.6239 55.979Z" stroke="url(#paint2_linear_1_2258)" stroke-width="0.8"/>
</g>
<circle cx="32.8065" cy="34.7518" r="3.89246" fill="white"/>
<circle cx="48.3768" cy="34.7518" r="3.89246" fill="white"/>
<circle cx="63.9462" cy="34.7518" r="3.89246" fill="white"/>
<defs>
<filter id="filter0_b_1_2258" x="6" y="10" width="108" height="56" filterUnits="userSpaceOnUse" color-interpolation-filters="sRGB">
<feFlood flood-opacity="0" result="BackgroundImageFix"/>
<feGaussianBlur in="BackgroundImageFix" stdDeviation="2"/>
<feComposite in2="SourceAlpha" operator="in" result="effect1_backgroundBlur_1_2258"/>
<feBlend mode="normal" in="SourceGraphic" in2="effect1_backgroundBlur_1_2258" result="shape"/>
</filter>
<linearGradient id="paint0_linear_1_2258" x1="22.2507" y1="10.9402" x2="74.4547" y2="70.2006" gradientUnits="userSpaceOnUse">
<stop stop-color="#7273FF"/>
<stop offset="1" stop-color="#B8B9FF"/>
</linearGradient>
<linearGradient id="paint1_linear_1_2258" x1="84.1741" y1="18.5052" x2="10.9173" y2="50.0658" gradientUnits="userSpaceOnUse">
<stop stop-color="white"/>
<stop offset="1" stop-color="#D7D7FF"/>
</linearGradient>
<linearGradient id="paint2_linear_1_2258" x1="21.3322" y1="14" x2="45.5635" y2="44.6068" gradientUnits="userSpaceOnUse">
<stop stop-color="white"/>
<stop offset="1" stop-color="white" stop-opacity="0"/>
</linearGradient>
</defs>
</svg>
