<svg width="24" height="24" viewBox="0 0 24 24" fill="none" xmlns="http://www.w3.org/2000/svg">
<path d="M8.73111 19.7867C8.73111 20.7645 9.52222 21.5556 10.5 21.5556C11.4778 21.5556 12.2689 20.7645 12.2689 19.7867H8.73111ZM10.5 6.44446C12.9533 6.44446 14.9444 8.43557 14.9444 10.8889V17.1111H6.05556V10.8889C6.05556 8.43557 8.04667 6.44446 10.5 6.44446ZM10.5 2.44446C9.76222 2.44446 9.16667 3.04001 9.16667 3.77779V4.81779C6.37556 5.42224 4.27778 7.91112 4.27778 10.8889V16.2222L2.5 18V18.8889H18.5V18L16.7222 16.2222V10.8889C16.7222 7.91112 14.6244 5.42224 11.8333 4.81779V3.77779C11.8333 3.04001 11.2378 2.44446 10.5 2.44446Z" fill="#414141"/>
<circle cx="17.5" cy="6.44446" r="4" fill="#FF4949"/>
</svg>
