<svg width="16" height="20" viewBox="0 0 16 20" fill="none" xmlns="http://www.w3.org/2000/svg">
<path d="M6.23111 17.3422C6.23111 18.32 7.02222 19.1111 8 19.1111C8.97778 19.1111 9.76889 18.32 9.76889 17.3422H6.23111ZM8 4C10.4533 4 12.4444 5.99111 12.4444 8.44444V14.6667H3.55556V8.44444C3.55556 5.99111 5.54667 4 8 4ZM8 0C7.26222 0 6.66667 0.595556 6.66667 1.33333V2.37333C3.87556 2.97778 1.77778 5.46667 1.77778 8.44444V13.7778L0 15.5556V16.4444H16V15.5556L14.2222 13.7778V8.44444C14.2222 5.46667 12.1244 2.97778 9.33333 2.37333V1.33333C9.33333 0.595556 8.73778 0 8 0Z" fill="#414141"/>
</svg>
