<svg width="31" height="29" viewBox="0 0 31 29" fill="none" xmlns="http://www.w3.org/2000/svg">
<path d="M11.1279 1.17841H19.5083C19.7889 1.17841 20.0455 1.33634 20.172 1.5868L21.7514 4.71392C21.8779 4.96437 22.1346 5.12231 22.4152 5.12231H28.5175C28.9282 5.12231 29.2612 5.45524 29.2612 5.86594V27.3848C29.2612 27.7955 28.9282 28.1284 28.5175 28.1284H2.11863C1.70794 28.1284 1.375 27.7955 1.375 27.3848V5.86594C1.375 5.45524 1.70793 5.12231 2.11863 5.12231H8.221C8.50159 5.12231 8.75829 4.96437 8.88478 4.71392L10.4641 1.5868C10.5906 1.33634 10.8473 1.17841 11.1279 1.17841Z" stroke="white" stroke-width="1.72629" stroke-linecap="round"/>
<path d="M20.6312 16.3002C20.6312 18.8315 18.5567 20.8948 15.9835 20.8948C13.4104 20.8948 11.3358 18.8315 11.3358 16.3002C11.3358 13.769 13.4104 11.7056 15.9835 11.7056C18.5567 11.7056 20.6312 13.769 20.6312 16.3002Z" stroke="white" stroke-width="1.32791"/>
</svg>
