<svg xmlns="http://www.w3.org/2000/svg" width="22" height="22" fill="none">
    <mask id="a" width="22" height="22" x="0" y="0" maskUnits="userSpaceOnUse">
        <path fill="#ffffff" d="M0 0h22v22H0z" />
    </mask>
    <g mask="url(#a)">
        <path
        fill="#504F50"
        d="M11.003 20.166c-1.268 0-2.46-.24-3.575-.722a9.256 9.256 0 0 1-2.91-1.96 9.257 9.257 0 0 1-1.96-2.91A8.926 8.926 0 0 1 1.836 11c0-1.268.24-2.46.722-3.575a9.257 9.257 0 0 1 1.96-2.91 9.257 9.257 0 0 1 2.91-1.96 8.926 8.926 0 0 1 3.575-.721 9.128 9.128 0 0 1 3.666.756V4.65a7.728 7.728 0 0 0-1.73-.721 7.056 7.056 0 0 0-1.936-.264c-2.032 0-3.763.714-5.191 2.143-1.428 1.428-2.143 3.158-2.143 5.19 0 2.032.715 3.762 2.143 5.191 1.428 1.428 3.159 2.143 5.19 2.143 2.032 0 3.763-.715 5.191-2.143 1.429-1.429 2.143-3.159 2.143-5.19 0-.49-.05-.963-.149-1.421a8.616 8.616 0 0 0-.401-1.33h1.97c.138.443.241.89.31 1.341.069.45.103.92.103 1.41 0 1.267-.24 2.46-.722 3.574a9.258 9.258 0 0 1-1.959 2.91 9.256 9.256 0 0 1-2.91 1.96 8.925 8.925 0 0 1-3.575.722Zm7.333-13.75V4.583h-1.833V2.749h1.833V.916h1.833v1.833h1.834v1.834h-1.834v1.833h-1.833Zm-4.125 3.667c.382 0 .707-.134.974-.401.267-.268.4-.592.4-.974s-.133-.707-.4-.974a1.326 1.326 0 0 0-.974-.401c-.382 0-.707.133-.974.4a1.326 1.326 0 0 0-.401.975c0 .382.134.706.401.974.267.267.592.4.974.4Zm-6.417 0c.382 0 .707-.134.974-.401.268-.268.401-.592.401-.974s-.133-.707-.4-.974a1.326 1.326 0 0 0-.975-.401c-.382 0-.706.133-.974.4a1.326 1.326 0 0 0-.4.975c0 .382.133.706.4.974.268.267.592.4.974.4Zm3.209 5.958a4.853 4.853 0 0 0 2.83-.882 5.027 5.027 0 0 0 1.845-2.326h-9.35a5.028 5.028 0 0 0 1.844 2.326 4.853 4.853 0 0 0 2.83.882Z"
        />
    </g>
    </svg>