<svg xmlns="http://www.w3.org/2000/svg" width="93" height="93" fill="none"><circle cx="46.5" cy="46.5" r="46" fill="url(#a)" stroke="url(#b)"/><path fill="#fff" d="M69.158 30.827c.54.53.842 1.25.842 2s-.303 1.468-.842 1.999L41.322 62.173c-.54.53-1.272.827-2.035.827a2.906 2.906 0 0 1-2.035-.827l-12.478-12.26A2.802 2.802 0 0 1 24 47.936a2.805 2.805 0 0 1 .843-1.952 2.905 2.905 0 0 1 1.987-.828 2.908 2.908 0 0 1 2.014.76l10.443 10.26 25.801-25.348A2.906 2.906 0 0 1 67.123 30c.763 0 1.495.298 2.035.827Z"/><defs><linearGradient id="a" x1="90.411" x2="8.277" y1="16.194" y2="74.959" gradientUnits="userSpaceOnUse"><stop stop-color="#7273FF"/><stop offset="1" stop-color="#B8B9FF"/></linearGradient><linearGradient id="b" x1="46.5" x2="76" y1="0" y2="93" gradientUnits="userSpaceOnUse"><stop stop-color="#B3BBFF"/><stop offset="1" stop-color="#CED3FF"/></linearGradient></defs></svg>