<svg xmlns="http://www.w3.org/2000/svg" width="31" height="29" fill="none">
    <path
    stroke="#fff"
    stroke-linecap="round"
    stroke-width="1.726"
    d="M11.128 1.18h8.38c.28 0 .538.158.664.408l1.58 3.127c.126.25.383.409.663.409h6.102c.411 0 .744.333.744.743v21.52c0 .41-.333.743-.744.743H2.12a.744.744 0 0 1-.744-.744V5.867c0-.41.333-.743.744-.743H8.22c.28 0 .537-.158.664-.409l1.58-3.127a.744.744 0 0 1 .663-.408Z"
    />
    <path
    stroke="#fff"
    stroke-width="1.328"
    d="M20.631 16.302c0 2.53-2.074 4.594-4.648 4.594-2.573 0-4.647-2.063-4.647-4.595 0-2.53 2.074-4.594 4.647-4.594 2.574 0 4.648 2.063 4.648 4.595Z"
    />
</svg>