<svg
className="float-right"
xmlns="http://www.w3.org/2000/svg"
width="18"
height="20"
fill="none"
>
<path
fill="#555"
d="m8.037 13.155 3.186-3.185a.905.905 0 0 1 .664-.275c.26 0 .482.092.665.275a.906.906 0 0 1 .275.664c0 .26-.092.482-.275.665L8.68 15.172a.88.88 0 0 1-.642.275.88.88 0 0 1-.641-.275l-1.948-1.948a.905.905 0 0 1-.275-.665c0-.26.092-.48.275-.664a.906.906 0 0 1 .664-.275c.26 0 .482.092.665.275l1.26 1.26ZM2.583 19.16c-.504 0-.935-.18-1.294-.539a1.766 1.766 0 0 1-.539-1.295V4.493c0-.504.18-.936.539-1.295.359-.359.79-.538 1.294-.538H3.5v-.917c0-.26.088-.478.264-.653a.887.887 0 0 1 .653-.264c.26 0 .477.088.653.264a.887.887 0 0 1 .263.653v.916h7.334v-.916c0-.26.088-.478.263-.653a.887.887 0 0 1 .653-.264c.26 0 .478.088.653.264a.887.887 0 0 1 .264.653v.916h.917c.504 0 .935.18 1.295.539.358.36.538.79.538 1.295v12.833c0 .504-.18.936-.538 1.295-.36.359-.791.539-1.295.539H2.583Zm0-1.834h12.834V8.16H2.583v9.167Z"
/>
</svg>