<svg width="24" height="24" viewBox="0 0 24 24" fill="none" xmlns="http://www.w3.org/2000/svg">
<path d="M18.6206 14.482C19.3732 14.482 20.0949 14.781 20.627 15.3131C21.1592 15.8452 21.4581 16.567 21.4581 17.3195V17.9958C21.4581 21.379 17.4762 23.9402 11.9999 23.9402C6.52364 23.9402 2.54175 21.5123 2.54175 17.9958V17.3195C2.54175 16.567 2.84069 15.8452 3.37282 15.3131C3.90494 14.781 4.62666 14.482 5.3792 14.482H18.6206ZM18.6206 15.9008H5.3792C5.02667 15.9008 4.68676 16.032 4.42571 16.2689C4.16467 16.5059 4.00117 16.8315 3.96709 17.1824L3.96047 17.3195V17.9958C3.96047 20.5249 7.16585 22.5215 11.9999 22.5215C16.659 22.5215 19.9022 20.5306 20.0356 18.148L20.0394 17.9958V17.3195C20.0394 16.967 19.9081 16.6271 19.6712 16.366C19.4343 16.105 19.1087 15.9415 18.7578 15.9074L18.6206 15.9008ZM11.9999 1.2406C12.7452 1.2406 13.4831 1.38739 14.1716 1.67258C14.8601 1.95777 15.4857 2.37578 16.0127 2.90274C16.5397 3.42971 16.9577 4.0553 17.2429 4.74381C17.528 5.43233 17.6748 6.17027 17.6748 6.91551C17.6748 7.66075 17.528 8.39869 17.2429 9.0872C16.9577 9.77571 16.5397 10.4013 16.0127 10.9283C15.4857 11.4552 14.8601 11.8732 14.1716 12.1584C13.4831 12.4436 12.7452 12.5904 11.9999 12.5904C10.4948 12.5904 9.05141 11.9925 7.98716 10.9283C6.92291 9.86402 6.32502 8.42059 6.32502 6.91551C6.32502 5.41043 6.92291 3.96699 7.98716 2.90274C9.05141 1.83849 10.4948 1.2406 11.9999 1.2406ZM11.9999 2.65933C10.8711 2.65933 9.78854 3.10774 8.99035 3.90593C8.19216 4.70412 7.74374 5.7867 7.74374 6.91551C7.74374 8.04432 8.19216 9.12689 8.99035 9.92508C9.78854 10.7233 10.8711 11.1717 11.9999 11.1717C13.1287 11.1717 14.2113 10.7233 15.0095 9.92508C15.8077 9.12689 16.2561 8.04432 16.2561 6.91551C16.2561 5.7867 15.8077 4.70412 15.0095 3.90593C14.2113 3.10774 13.1287 2.65933 11.9999 2.65933Z" fill="#6224FD"/>
</svg>
