<svg width="25" height="25" viewBox="0 0 25 25" fill="none" xmlns="http://www.w3.org/2000/svg">
<path fill-rule="evenodd" clip-rule="evenodd" d="M19.5079 5.0672C19.8008 5.3601 19.8008 5.83497 19.5079 6.12786L6.00787 19.6279C5.71498 19.9208 5.2401 19.9208 4.94721 19.6279C4.65432 19.335 4.65432 18.8601 4.94721 18.5672L18.4472 5.0672C18.7401 4.77431 19.215 4.77431 19.5079 5.0672Z" fill="black" fill-opacity="0.8"/>
<path fill-rule="evenodd" clip-rule="evenodd" d="M4.94721 5.0672C5.2401 4.77431 5.71498 4.77431 6.00787 5.0672L19.5079 18.5672C19.8008 18.8601 19.8008 19.335 19.5079 19.6279C19.215 19.9208 18.7401 19.9208 18.4472 19.6279L4.94721 6.12786C4.65432 5.83497 4.65432 5.3601 4.94721 5.0672Z" fill="black" fill-opacity="0.8"/>
</svg>
