<svg width="212" height="176" viewBox="0 0 212 176" fill="none" xmlns="http://www.w3.org/2000/svg">
<path d="M201.423 49.1782H54.8597C52.817 49.1782 51.1611 50.8341 51.1611 52.8768V139.746C51.1611 141.789 52.817 143.445 54.8597 143.445H201.423C203.466 143.445 205.122 141.789 205.122 139.746V52.8768C205.122 50.8341 203.466 49.1782 201.423 49.1782Z" fill="url(#paint0_linear_217_2574)"/>
<path d="M212 166.617H44.29L51.1601 139.905H205.13L212 166.617Z" fill="#CCCCCC"/>
<path d="M212 166.617H44.29L51.1601 139.905H205.13L212 166.617Z" fill="url(#paint1_linear_217_2574)"/>
<path d="M194.024 127.728V64.899C194.024 62.3457 191.955 60.2759 189.401 60.2759L66.8781 60.2759C64.3248 60.2759 62.2549 62.3457 62.2549 64.899V127.728C62.2549 130.281 64.3248 132.351 66.8781 132.351H189.401C191.955 132.351 194.024 130.281 194.024 127.728Z" fill="url(#paint2_linear_217_2574)"/>
<g filter="url(#filter0_b_217_2574)">
<path d="M25.1783 43.4562C29.859 43.4562 34.2277 44.7406 37.9723 46.9354C42.6694 32.9047 56.0218 22.7597 71.772 22.7597C71.8377 22.7597 71.8869 22.7597 71.9526 22.7597C74.8432 9.73707 86.5368 -0.00146484 100.562 -0.00146484C116.74 -0.00146484 129.862 12.9887 129.862 29.0028C129.862 38.9039 124.837 47.6345 117.2 52.8695C132.096 57.0804 143.001 70.6558 143.001 86.7512C143.001 106.228 127.054 121.999 107.395 121.999C97.3763 121.999 88.3105 117.885 81.8396 111.285C75.9436 115.577 68.6679 118.113 60.7846 118.113C44.7552 118.113 31.2057 107.626 26.7385 93.2056C26.213 93.2381 25.7039 93.2869 25.1783 93.2869C11.2675 93.2869 0.000976562 82.1339 0.000976562 68.3634C0.000976562 54.5929 11.2675 43.4399 25.1783 43.4399V43.4562Z" fill="url(#paint3_linear_217_2574)" fill-opacity="0.5"/>
</g>
<path d="M77.9558 47.9197C77.5244 55.6488 77.9954 63.0255 79.9484 69.7953C81.305 74.4796 83.986 78.6806 87.6544 81.8928L101.536 94.0691C103.564 95.8454 106.744 94.4258 106.761 91.7388C106.843 79.734 104.043 54.7551 80.3838 46.2909C79.236 45.8819 78.0261 46.7046 77.9558 47.9197Z" fill="url(#paint4_linear_217_2574)"/>
<path d="M44.29 170.62C44.29 168.41 46.0809 166.62 48.29 166.62H208C210.209 166.62 212 168.41 212 170.62V171.7C212 173.909 210.209 175.7 208 175.7H48.83C46.3242 175.7 44.29 173.665 44.29 171.16V170.62Z" fill="url(#paint5_linear_217_2574)"/>
<path d="M58.5389 143.077L54.415 151.916H198.76L196.106 143.077H58.5389Z" fill="url(#paint6_linear_217_2574)"/>
<path d="M198.76 151.913H54.415V155.889H198.76V151.913Z" fill="url(#paint7_linear_217_2574)"/>
<g filter="url(#filter1_b_217_2574)">
<path d="M176.178 110.133C182.219 110.133 187.116 105.236 187.116 99.1948C187.116 93.1536 182.219 88.2563 176.178 88.2563C170.137 88.2563 165.239 93.1536 165.239 99.1948C165.239 105.236 170.137 110.133 176.178 110.133Z" fill="url(#paint8_linear_217_2574)" fill-opacity="0.5"/>
</g>
<g filter="url(#filter2_b_217_2574)">
<path d="M194.08 88.7539C196.634 88.7539 198.703 86.684 198.703 84.1307C198.703 81.5774 196.634 79.5076 194.08 79.5076C191.527 79.5076 189.457 81.5774 189.457 84.1307C189.457 86.684 191.527 88.7539 194.08 88.7539Z" fill="url(#paint9_linear_217_2574)" fill-opacity="0.5"/>
</g>
<g filter="url(#filter3_b_217_2574)">
<path d="M164.381 124.303C162.22 124.303 160.204 124.903 158.476 125.928C156.308 119.373 150.145 114.633 142.876 114.633C142.846 114.633 142.823 114.633 142.793 114.633C141.458 108.549 136.061 103.999 129.588 103.999C122.122 103.999 116.065 110.068 116.065 117.55C116.065 122.176 118.385 126.255 121.909 128.701C115.034 130.668 110.001 137.011 110.001 144.531C110.001 153.63 117.361 160.999 126.435 160.999C131.059 160.999 135.243 159.077 138.229 155.993C140.951 157.998 144.309 159.183 147.947 159.183C155.345 159.183 161.599 154.284 163.661 147.546C163.903 147.561 164.138 147.584 164.381 147.584C170.801 147.584 176.001 142.373 176.001 135.939C176.001 129.506 170.801 124.295 164.381 124.295V124.303Z" fill="url(#paint10_linear_217_2574)" fill-opacity="0.5"/>
</g>
<g filter="url(#filter4_b_217_2574)">
<path d="M109.786 87.7402C108.983 86.6648 107.93 85.8878 106.769 85.4148C109.281 81.859 109.39 77.0004 106.689 73.3817C106.678 73.3666 106.669 73.3553 106.658 73.3402C109.241 70.3773 109.539 65.9716 107.133 62.7491C104.359 59.0323 99.0362 58.3103 95.2495 61.137C92.9082 62.8847 91.7057 65.5805 91.7776 68.2592C88.2271 65.58 83.1466 65.4707 79.3406 68.3118C74.735 71.7498 73.741 78.1976 77.1127 82.7144C78.831 85.0162 81.3585 86.3731 84.0292 86.6947C84.0255 88.807 84.6736 90.9263 86.0257 92.7375C88.7749 96.4204 93.5784 97.6825 97.7546 96.1633C97.837 96.2898 97.9128 96.4154 98.003 96.5362C100.389 99.7323 104.958 100.352 108.215 97.9214C111.471 95.4907 112.176 90.9334 109.79 87.7373L109.786 87.7402Z" fill="url(#paint11_linear_217_2574)" fill-opacity="0.5"/>
</g>
<defs>
<filter id="filter0_b_217_2574" x="-3.99902" y="-4.00146" width="151" height="130" filterUnits="userSpaceOnUse" color-interpolation-filters="sRGB">
<feFlood flood-opacity="0" result="BackgroundImageFix"/>
<feGaussianBlur in="BackgroundImageFix" stdDeviation="2"/>
<feComposite in2="SourceAlpha" operator="in" result="effect1_backgroundBlur_217_2574"/>
<feBlend mode="normal" in="SourceGraphic" in2="effect1_backgroundBlur_217_2574" result="shape"/>
</filter>
<filter id="filter1_b_217_2574" x="161.239" y="84.2563" width="29.877" height="29.8767" filterUnits="userSpaceOnUse" color-interpolation-filters="sRGB">
<feFlood flood-opacity="0" result="BackgroundImageFix"/>
<feGaussianBlur in="BackgroundImageFix" stdDeviation="2"/>
<feComposite in2="SourceAlpha" operator="in" result="effect1_backgroundBlur_217_2574"/>
<feBlend mode="normal" in="SourceGraphic" in2="effect1_backgroundBlur_217_2574" result="shape"/>
</filter>
<filter id="filter2_b_217_2574" x="185.457" y="75.5076" width="17.2461" height="17.2463" filterUnits="userSpaceOnUse" color-interpolation-filters="sRGB">
<feFlood flood-opacity="0" result="BackgroundImageFix"/>
<feGaussianBlur in="BackgroundImageFix" stdDeviation="2"/>
<feComposite in2="SourceAlpha" operator="in" result="effect1_backgroundBlur_217_2574"/>
<feBlend mode="normal" in="SourceGraphic" in2="effect1_backgroundBlur_217_2574" result="shape"/>
</filter>
<filter id="filter3_b_217_2574" x="106.001" y="99.9985" width="74" height="65" filterUnits="userSpaceOnUse" color-interpolation-filters="sRGB">
<feFlood flood-opacity="0" result="BackgroundImageFix"/>
<feGaussianBlur in="BackgroundImageFix" stdDeviation="2"/>
<feComposite in2="SourceAlpha" operator="in" result="effect1_backgroundBlur_217_2574"/>
<feBlend mode="normal" in="SourceGraphic" in2="effect1_backgroundBlur_217_2574" result="shape"/>
</filter>
<filter id="filter4_b_217_2574" x="71.1143" y="55.4116" width="44.0898" height="47.9939" filterUnits="userSpaceOnUse" color-interpolation-filters="sRGB">
<feFlood flood-opacity="0" result="BackgroundImageFix"/>
<feGaussianBlur in="BackgroundImageFix" stdDeviation="2"/>
<feComposite in2="SourceAlpha" operator="in" result="effect1_backgroundBlur_217_2574"/>
<feBlend mode="normal" in="SourceGraphic" in2="effect1_backgroundBlur_217_2574" result="shape"/>
</filter>
<linearGradient id="paint0_linear_217_2574" x1="128.141" y1="49.1782" x2="128.141" y2="143.445" gradientUnits="userSpaceOnUse">
<stop stop-color="#494949"/>
<stop offset="0.0001" stop-color="#C9C4FF"/>
<stop offset="1" stop-color="white"/>
</linearGradient>
<linearGradient id="paint1_linear_217_2574" x1="128.145" y1="139.905" x2="128.145" y2="166.617" gradientUnits="userSpaceOnUse">
<stop stop-color="#494949"/>
<stop offset="0.0001" stop-color="#C9C4FF"/>
<stop offset="1" stop-color="white"/>
</linearGradient>
<linearGradient id="paint2_linear_217_2574" x1="171.079" y1="130.345" x2="138.418" y2="46.8873" gradientUnits="userSpaceOnUse">
<stop stop-color="#7273FF"/>
<stop offset="1" stop-color="#B8B9FF"/>
</linearGradient>
<linearGradient id="paint3_linear_217_2574" x1="36.932" y1="11.4493" x2="154.241" y2="39.8837" gradientUnits="userSpaceOnUse">
<stop stop-color="white"/>
<stop offset="1" stop-color="#D7D7FF"/>
</linearGradient>
<linearGradient id="paint4_linear_217_2574" x1="106.306" y1="70.6115" x2="78.8577" y2="77.3193" gradientUnits="userSpaceOnUse">
<stop stop-color="#3A3BBA"/>
<stop offset="1" stop-color="#9494FF"/>
</linearGradient>
<linearGradient id="paint5_linear_217_2574" x1="207.332" y1="168.201" x2="206.057" y2="185.05" gradientUnits="userSpaceOnUse">
<stop stop-color="#7273FF"/>
<stop offset="1" stop-color="#B8B9FF"/>
</linearGradient>
<linearGradient id="paint6_linear_217_2574" x1="194.742" y1="144.616" x2="193.34" y2="160.993" gradientUnits="userSpaceOnUse">
<stop stop-color="#7273FF"/>
<stop offset="1" stop-color="#B8B9FF"/>
</linearGradient>
<linearGradient id="paint7_linear_217_2574" x1="196.143" y1="153.904" x2="195.507" y2="163.467" gradientUnits="userSpaceOnUse">
<stop stop-color="#5E5FFF"/>
<stop offset="1" stop-color="#9494FF"/>
</linearGradient>
<linearGradient id="paint8_linear_217_2574" x1="181.466" y1="90.3097" x2="163.245" y2="94.0778" gradientUnits="userSpaceOnUse">
<stop stop-color="white"/>
<stop offset="1" stop-color="#D7D7FF"/>
</linearGradient>
<linearGradient id="paint9_linear_217_2574" x1="196.315" y1="80.3754" x2="188.614" y2="81.968" gradientUnits="userSpaceOnUse">
<stop stop-color="white"/>
<stop offset="1" stop-color="#D7D7FF"/>
</linearGradient>
<linearGradient id="paint10_linear_217_2574" x1="158.956" y1="109.349" x2="104.741" y2="122.33" gradientUnits="userSpaceOnUse">
<stop stop-color="white"/>
<stop offset="1" stop-color="#D7D7FF"/>
</linearGradient>
<linearGradient id="paint11_linear_217_2574" x1="115.339" y1="79.39" x2="88.7889" y2="57.1067" gradientUnits="userSpaceOnUse">
<stop stop-color="white"/>
<stop offset="1" stop-color="#D7D7FF"/>
</linearGradient>
</defs>
</svg>
