<svg width="24" height="24" viewBox="0 0 24 24" fill="none" xmlns="http://www.w3.org/2000/svg">
<path fill-rule="evenodd" clip-rule="evenodd" d="M3.9955 3.19505C4.30199 2.91642 4.77633 2.93901 5.05496 3.2455L20.055 19.7455C20.3336 20.052 20.311 20.5263 20.0045 20.805C19.698 21.0836 19.2237 21.061 18.9451 20.7545L3.94505 4.25451C3.66642 3.94802 3.68901 3.47368 3.9955 3.19505Z" fill="#CED4DA"/>
<path fill-rule="evenodd" clip-rule="evenodd" d="M10.0327 8.72065C10.3113 9.02717 10.2887 9.5015 9.98218 9.7801C9.53411 10.1874 9.21976 10.7207 9.08047 11.3099C8.94117 11.8992 8.98344 12.5168 9.20173 13.0816C9.42002 13.6464 9.8041 14.1319 10.3035 14.4743C10.8029 14.8168 11.3942 15 11.9997 15.0001L12.0025 15.0001C12.7472 15.0029 13.4657 14.7252 14.0149 14.2221C14.3203 13.9423 14.7947 13.9631 15.0745 14.2685C15.3543 14.5739 15.3335 15.0483 15.0281 15.3281C14.2012 16.0856 13.1195 16.504 11.9981 16.5001C11.0904 16.4997 10.2039 16.2248 9.45522 15.7115C8.70615 15.1978 8.13002 14.4696 7.80259 13.6224C7.47516 12.7752 7.41175 11.8488 7.6207 10.9649C7.82964 10.081 8.30116 9.281 8.97327 8.6701C9.27979 8.3915 9.75412 8.41413 10.0327 8.72065Z" fill="#CED4DA"/>
<path fill-rule="evenodd" clip-rule="evenodd" d="M7.60689 6.09328C7.79358 6.46304 7.64518 6.91413 7.27542 7.10082C5.49276 8.00089 4.21533 9.30473 3.37972 10.3959C2.96317 10.9399 2.6606 11.4255 2.46368 11.7721C2.41552 11.8568 2.37377 11.9331 2.33828 11.9997C2.42652 12.165 2.55329 12.3896 2.7205 12.6551C3.09628 13.252 3.67199 14.049 4.46772 14.8447C6.05485 16.4319 8.49932 18.0001 11.9999 18.0001H12.006C13.6442 18.0134 15.2619 17.636 16.725 16.899C17.0949 16.7127 17.5459 16.8615 17.7322 17.2314C17.9186 17.6013 17.7697 18.0523 17.3998 18.2386C15.7246 19.0825 13.8724 19.5149 11.9968 19.5001C7.99899 19.4991 5.19446 17.6928 3.40706 15.9054C2.51529 15.0136 1.87224 14.1232 1.45115 13.4544C1.24024 13.1194 1.08394 12.8383 0.97907 12.6381C0.926609 12.538 0.886936 12.4579 0.85966 12.4012C0.84602 12.3729 0.835472 12.3504 0.827969 12.3342L0.818988 12.3146L0.816196 12.3084L0.815223 12.3062L0.814842 12.3054C0.81468 12.305 0.814531 12.3047 1.49989 12.0001C0.814239 11.6961 0.814347 11.6959 0.814461 11.6956L0.815351 11.6936L0.817067 11.6898L0.822322 11.6782C0.826637 11.6687 0.832581 11.6559 0.840173 11.6397C0.855355 11.6074 0.877141 11.562 0.905684 11.5049C0.962752 11.3906 1.04695 11.2291 1.15954 11.031C1.38449 10.6351 1.72411 10.0907 2.18881 9.48392C3.1157 8.27353 4.55702 6.79299 6.59936 5.76181C6.96911 5.57512 7.4202 5.72353 7.60689 6.09328ZM1.49989 12.0001L0.814461 11.6956C0.728559 11.8894 0.728444 12.111 0.814531 12.3047L1.49989 12.0001Z" fill="#CED4DA"/>
<path fill-rule="evenodd" clip-rule="evenodd" d="M9.93587 4.66969C10.6183 4.55545 11.3091 4.4987 12.0011 4.50002C12.0013 4.50002 12.0008 4.50002 12.0011 4.50002L12.0003 5.25002V4.50002C12.0006 4.50002 12.0008 4.50002 12.0011 4.50002C16.0001 4.50025 18.8054 6.30694 20.5931 8.09469C21.4849 8.98646 22.128 9.87693 22.549 10.5457C22.76 10.8807 22.9163 11.1618 23.0211 11.362C23.0736 11.4621 23.1133 11.5422 23.1405 11.5989C23.1542 11.6272 23.1647 11.6497 23.1722 11.6659L23.1812 11.6855L23.184 11.6917L23.185 11.6939L23.1854 11.6947C23.1855 11.6951 23.1857 11.6954 22.5003 12C21.815 11.6954 21.815 11.6953 21.8151 11.6951L21.8094 11.7075C21.8041 11.7189 21.7953 11.7377 21.7829 11.7632C21.7582 11.8142 21.7193 11.892 21.6658 11.9925C21.6644 11.995 21.6631 11.9975 21.6617 12C21.5735 11.8348 21.4468 11.6103 21.2797 11.3449C20.9039 10.7481 20.3282 9.95108 19.5325 9.15535C17.9454 7.56822 15.5009 6.00002 12.0003 6.00002H11.9988C11.3906 5.99882 10.7834 6.04869 10.1835 6.14911C9.77498 6.21749 9.38837 5.94175 9.31998 5.53322C9.25159 5.12469 9.52734 4.73808 9.93587 4.66969ZM22.5003 12L23.1857 12.3046C23.2719 12.1107 23.2719 11.8893 23.1857 11.6954L22.5003 12ZM21.6617 12C21.5546 12.2008 21.3908 12.4885 21.1671 12.8306C20.7131 13.525 20.0181 14.434 19.0565 15.2942C18.7478 15.5703 18.7214 16.0444 18.9976 16.3532C19.2737 16.6619 19.7479 16.6883 20.0566 16.4121C21.1388 15.4441 21.9157 14.4266 22.4226 13.6515C22.6765 13.2631 22.8642 12.9333 22.9897 12.6975C23.0526 12.5796 23.0999 12.4849 23.1324 12.418C23.1486 12.3846 23.1612 12.358 23.17 12.339L23.1806 12.316L23.1838 12.3088L23.1849 12.3064L23.1853 12.3054C23.1854 12.3052 23.1857 12.3046 22.5003 12C21.815 12.3046 21.8151 12.3049 21.8152 12.3052L21.8107 12.2954C21.8064 12.2861 21.7992 12.2707 21.789 12.2496C21.7687 12.2074 21.7366 12.1424 21.6924 12.058C21.6827 12.0396 21.6725 12.0202 21.6617 12Z" fill="#CED4DA"/>
<path fill-rule="evenodd" clip-rule="evenodd" d="M11.9664 8.17594C12.0435 7.76897 12.4359 7.50157 12.8429 7.57868C13.8003 7.76007 14.6727 8.24795 15.3284 8.96868C15.9842 9.68941 16.3877 10.6039 16.4782 11.5741C16.5166 11.9865 16.2134 12.352 15.801 12.3905C15.3886 12.4289 15.0231 12.1257 14.9846 11.7133C14.9244 11.0672 14.6557 10.4581 14.2189 9.97816C13.7822 9.49817 13.2012 9.17326 12.5636 9.05246C12.1567 8.97534 11.8893 8.58292 11.9664 8.17594Z" fill="#CED4DA"/>
</svg>
