<svg width="25" height="25" viewBox="0 0 25 25" fill="none" xmlns="http://www.w3.org/2000/svg">
<path fill-rule="evenodd" clip-rule="evenodd" d="M18.8454 6.19963C18.8463 6.19705 18.8472 6.19445 18.848 6.19182L18.8485 6.1923C18.6026 5.91893 18.3567 5.64566 18.1108 5.37238C17.619 4.82596 17.1273 4.27953 16.6363 3.73238C16.5738 3.66315 16.5141 3.59079 16.4545 3.5185C16.4248 3.48248 16.3951 3.44647 16.3651 3.41089C16.2692 3.42649 11.9549 7.64472 6.85726 12.6288C5.76868 13.6932 4.64439 14.7924 3.51782 15.8932C3.50031 15.9103 3.48115 15.9262 3.46192 15.9422C3.39947 15.9941 3.33628 16.0466 3.32617 16.1437L3.32654 16.1441C4.15132 17.0454 4.9761 17.9466 5.8013 18.8474C5.82616 18.8748 5.8526 18.9001 5.87913 18.9255C5.88845 18.9344 5.89778 18.9434 5.90706 18.9524C5.90683 18.9555 5.90665 18.9586 5.90652 18.9618C6.08971 19.1653 6.27295 19.3688 6.45621 19.5723C7.00445 20.1812 7.55282 20.7902 8.10023 21.3996C8.17129 21.4789 8.23984 21.5607 8.30839 21.6425C8.33694 21.6765 8.36549 21.7106 8.39423 21.7445C8.50536 21.7413 8.56699 21.6676 8.62765 21.595C8.64772 21.571 8.66769 21.5471 8.68931 21.5259C15.0556 15.3112 21.3519 9.17961 21.4549 9.08159C21.4551 9.08144 21.4552 9.0813 21.4553 9.08118M18.8454 6.19963C18.9563 6.31917 19.0679 6.43809 19.1794 6.557C19.4287 6.82281 19.6779 7.08855 19.9208 7.36089C20.0907 7.55129 20.2642 7.73813 20.4376 7.92495C20.7867 8.30094 21.1357 8.67685 21.4549 9.08159" fill="#6224FD"/>
<path d="M3.32454 16.1451C4.14944 17.0465 4.97434 17.9478 5.79966 18.8488C5.83569 18.8884 5.87547 18.9243 5.91315 18.9614C6.64438 19.7737 7.37605 20.5865 8.10686 21.3992C8.20751 21.5116 8.30313 21.6288 8.40085 21.744C7.47022 22.0041 6.5127 22.1773 5.56487 22.3802C5.02903 22.4948 4.5068 22.66 3.95044 22.7034C3.34373 22.0358 2.73657 21.3676 2.12986 20.7C2.25592 19.9778 2.46743 19.287 2.65609 18.5884C2.87703 17.7734 3.04313 16.9363 3.32368 16.145L3.32454 16.1451Z" fill="white"/>
<path d="M23.9105 6.46937C23.8334 6.67815 23.7032 6.87036 23.5564 7.04689C23.3581 7.28576 23.1418 7.5075 22.9193 7.72159C22.4836 8.14167 22.0211 8.53319 21.6108 8.98127C21.56 9.03653 21.5033 9.06192 21.4264 9.01393C21.38 8.95431 21.3375 8.89191 21.287 8.83638C19.6548 7.03916 18.0214 5.24228 16.3889 3.44547C16.5507 3.18121 16.7998 3.00768 17.0103 2.79434C17.3866 2.41412 17.7819 2.05376 18.153 1.66863C18.4389 1.37231 18.8149 1.06817 19.2557 1.0375C19.8528 0.997132 20.3052 1.56296 20.6963 1.99623C21.2794 2.64317 21.8629 3.2897 22.446 3.93664C22.733 4.25459 23.019 4.57247 23.306 4.89042C23.4875 5.09161 23.7082 5.28905 23.8372 5.53156C24.0208 5.87669 24.0142 6.1881 23.9109 6.46896L23.9105 6.46937Z" fill="#9192FF"/>
<path d="M2.13435 20.6974C2.74106 21.3651 3.34821 22.0332 3.95493 22.7009C3.33249 22.8437 2.70961 22.986 2.05782 23.1356C1.78893 23.197 1.53018 22.9126 1.60489 22.6378C1.78584 21.9751 1.9601 21.3362 2.13477 20.697L2.13435 20.6974Z" fill="#6224FD"/>
</svg>
