<svg width="18" height="19" viewBox="0 0 18 19" fill="none" xmlns="http://www.w3.org/2000/svg">
<mask id="mask0_110_626" style="mask-type:alpha" maskUnits="userSpaceOnUse" x="0" y="0" width="18" height="19">
<rect y="0.557373" width="18" height="18" fill="#D9D9D9"/>
</mask>
<g mask="url(#mask0_110_626)">
<path d="M4.5 6.70704H11.25V5.23571C11.25 4.62265 11.0312 4.10156 10.5938 3.67242C10.1562 3.24328 9.625 3.02871 9 3.02871C8.375 3.02871 7.84375 3.24328 7.40625 3.67242C6.96875 4.10156 6.75 4.62265 6.75 5.23571H5.25C5.25 4.21804 5.61563 3.35056 6.34688 2.63329C7.07812 1.91601 7.9625 1.55737 9 1.55737C10.0375 1.55737 10.9219 1.91601 11.6531 2.63329C12.3844 3.35056 12.75 4.21804 12.75 5.23571V6.70704H13.5C13.9125 6.70704 14.2656 6.85111 14.5594 7.13925C14.8531 7.42738 15 7.77376 15 8.17838V15.535C15 15.9397 14.8531 16.286 14.5594 16.5742C14.2656 16.8623 13.9125 17.0064 13.5 17.0064H4.5C4.0875 17.0064 3.73438 16.8623 3.44063 16.5742C3.14688 16.286 3 15.9397 3 15.535V8.17838C3 7.77376 3.14688 7.42738 3.44063 7.13925C3.73438 6.85111 4.0875 6.70704 4.5 6.70704ZM4.5 15.535H13.5V8.17838H4.5V15.535ZM9 13.328C9.4125 13.328 9.76563 13.184 10.0594 12.8958C10.3531 12.6077 10.5 12.2613 10.5 11.8567C10.5 11.4521 10.3531 11.1057 10.0594 10.8176C9.76563 10.5294 9.4125 10.3854 9 10.3854C8.5875 10.3854 8.23438 10.5294 7.94063 10.8176C7.64687 11.1057 7.5 11.4521 7.5 11.8567C7.5 12.2613 7.64687 12.6077 7.94063 12.8958C8.23438 13.184 8.5875 13.328 9 13.328Z" fill="#1C1B1F"/>
</g>
</svg>
