<svg width="367" height="355" viewBox="0 0 367 355" fill="none" xmlns="http://www.w3.org/2000/svg">
<path d="M165.298 77.7827L98.4306 196.118L156.721 250.443L342.154 243.317L381.268 213.308L295.528 11.959L165.298 77.7827Z" fill="url(#paint0_linear_1_2296)" fill-opacity="0.2"/>
<path d="M101.345 257.361L82.3018 275.918L107.12 301.386C110.395 304.747 115.784 304.816 119.144 301.542L125.997 294.863C129.358 291.589 129.428 286.2 126.153 282.839L101.335 257.371L101.345 257.361Z" fill="url(#paint1_linear_1_2296)"/>
<path d="M109.581 233.229C94.682 214.737 92.0077 192.17 103.608 182.824C115.208 173.478 136.69 180.891 151.588 199.383C166.487 217.875 169.162 240.442 157.562 249.788C145.962 259.134 124.48 251.721 109.581 233.229Z" fill="#DDDDDD"/>
<path d="M61.2581 265.904C62.5754 272.514 66.3238 276.879 72.3529 279.199C76.3426 280.741 80.808 280.488 84.7076 278.75L97.3827 273.107L142.776 252.87C145.312 246.685 146.156 239.716 144.841 232.657L144.789 232.377L122.734 205.807C116.642 203.383 109.828 202.597 102.909 203.885C100.896 204.26 98.9559 204.795 97.0893 205.489L73.5313 239.611L63.9279 253.518C61.4338 257.136 60.4034 261.623 61.2607 265.918L61.2581 265.904Z" fill="url(#paint2_linear_1_2296)"/>
<path d="M74.1422 245.804C76.5674 258.833 85.7474 268.911 97.3737 273.096L142.767 252.859C145.303 246.674 146.147 239.705 144.832 232.646L144.78 232.366L122.725 205.795C116.633 203.372 114.349 195.61 107.43 196.899C105.417 197.273 103.477 197.808 101.61 198.502L73.5223 239.599C73.5423 241.649 73.7405 243.724 74.1309 245.821L74.1422 245.804Z" fill="url(#paint3_linear_1_2296)"/>
<path d="M109.581 233.229C94.682 214.737 92.0077 192.17 103.608 182.824C115.208 173.478 136.69 180.891 151.588 199.383C166.487 217.875 169.162 240.442 157.562 249.788C145.962 259.134 124.48 251.721 109.581 233.229Z" fill="url(#paint4_linear_1_2296)"/>
<path d="M148.139 242.437C149.113 242.172 149.946 241.768 150.645 241.195C156.386 236.568 154.304 220.306 143.005 206.287C132.573 193.343 119.786 188.32 113.035 190.156C112.061 190.421 111.228 190.824 110.529 191.398C104.789 196.024 106.87 212.286 118.169 226.306C128.602 239.249 141.388 244.273 148.139 242.437Z" fill="#A5A5A5"/>
<mask id="mask0_1_2296" style="mask-type:luminance" maskUnits="userSpaceOnUse" x="107" y="189" width="47" height="54">
<path d="M148.138 242.431C149.112 242.166 149.945 241.763 150.644 241.19C156.385 236.563 154.303 220.301 143.004 206.282C132.572 193.338 119.785 188.314 113.034 190.151C112.06 190.416 111.227 190.819 110.528 191.392C104.788 196.019 106.869 212.281 118.168 226.3C128.601 239.244 141.387 244.268 148.138 242.431Z" fill="white"/>
</mask>
<g mask="url(#mask0_1_2296)">
<path d="M148.138 242.431C149.112 242.166 149.945 241.763 150.644 241.19C156.385 236.563 154.303 220.301 143.004 206.282C132.572 193.338 119.785 188.314 113.034 190.151C112.06 190.416 111.227 190.819 110.528 191.392C104.788 196.019 106.869 212.281 118.168 226.3C128.601 239.244 141.387 244.268 148.138 242.431Z" fill="url(#paint5_linear_1_2296)"/>
<path d="M105.429 216.831L121.338 239.557L139.374 220.652L129.382 206.35L105.429 216.831Z" fill="url(#paint6_linear_1_2296)"/>
<path d="M128.557 217.586C125.653 213.436 125.49 208.538 128.192 206.648C130.895 204.757 135.439 206.589 138.343 210.739C141.247 214.889 141.41 219.786 138.707 221.677C136.005 223.567 131.46 221.736 128.557 217.586Z" fill="white"/>
<path d="M128.557 217.586C125.653 213.436 125.49 208.538 128.192 206.648C130.895 204.757 135.439 206.589 138.343 210.739C141.247 214.889 141.41 219.786 138.707 221.677C136.005 223.567 131.46 221.736 128.557 217.586Z" fill="url(#paint7_linear_1_2296)"/>
</g>
<defs>
<linearGradient id="paint0_linear_1_2296" x1="207.099" y1="180.84" x2="119.435" y2="234.547" gradientUnits="userSpaceOnUse">
<stop stop-color="white"/>
<stop offset="1" stop-color="#8490FF"/>
</linearGradient>
<linearGradient id="paint1_linear_1_2296" x1="84.3491" y1="320.164" x2="102.898" y2="252.567" gradientUnits="userSpaceOnUse">
<stop offset="0.0001" stop-color="#C9C4FF"/>
<stop offset="1" stop-color="white"/>
</linearGradient>
<linearGradient id="paint2_linear_1_2296" x1="59.5507" y1="247.995" x2="134.682" y2="270.662" gradientUnits="userSpaceOnUse">
<stop stop-color="#5E5FFF"/>
<stop offset="1" stop-color="#9494FF"/>
</linearGradient>
<linearGradient id="paint3_linear_1_2296" x1="70.7409" y1="216.67" x2="142.126" y2="249.365" gradientUnits="userSpaceOnUse">
<stop stop-color="#7273FF"/>
<stop offset="1" stop-color="#B8B9FF"/>
</linearGradient>
<linearGradient id="paint4_linear_1_2296" x1="151.588" y1="199.383" x2="109.581" y2="233.229" gradientUnits="userSpaceOnUse">
<stop stop-color="#494949"/>
<stop offset="0.0001" stop-color="#C9C4FF"/>
<stop offset="1" stop-color="white"/>
</linearGradient>
<linearGradient id="paint5_linear_1_2296" x1="106.899" y1="225.797" x2="159.805" y2="197.928" gradientUnits="userSpaceOnUse">
<stop offset="0.0001" stop-color="#C9C4FF"/>
<stop offset="1" stop-color="white"/>
</linearGradient>
<linearGradient id="paint6_linear_1_2296" x1="106.646" y1="217.937" x2="137.962" y2="230.576" gradientUnits="userSpaceOnUse">
<stop stop-color="#7273FF"/>
<stop offset="1" stop-color="#B8B9FF"/>
</linearGradient>
<linearGradient id="paint7_linear_1_2296" x1="133.008" y1="201.458" x2="127.49" y2="206.502" gradientUnits="userSpaceOnUse">
<stop stop-color="#E4E4FF"/>
<stop offset="1" stop-color="white"/>
</linearGradient>
</defs>
</svg>
