<svg width="213" height="194" viewBox="0 0 213 194" fill="none" xmlns="http://www.w3.org/2000/svg">
<path d="M153.327 160.941L61.6298 148.167C55.1481 147.268 50.6109 141.273 51.5019 134.773L67.1793 42.5513C68.0778 36.0695 71.1617 32.0375 77.6699 32.9475L169.367 45.7215C175.849 46.6199 180.386 52.6147 179.495 59.1155L166.721 150.813C165.823 157.294 159.828 161.832 153.327 160.941Z" fill="url(#paint0_linear_236_2713)"/>
<path d="M166.41 45.3172L81.1089 33.4331C74.9316 32.5724 69.2262 36.8825 68.3655 43.0598L55.9413 132.238C55.0807 138.415 59.3907 144.12 65.5681 144.981L150.869 156.865C157.047 157.726 162.752 153.416 163.613 147.238L176.037 58.0606C176.898 51.8833 172.588 46.1779 166.41 45.3172Z" fill="url(#paint1_linear_236_2713)"/>
<path d="M160.976 50.6919L84.9014 40.0931C79.3931 39.3257 74.3056 43.169 73.5382 48.6773L62.4585 128.204C61.6911 133.713 65.5343 138.8 71.0427 139.568L147.117 150.166C152.626 150.934 157.713 147.091 158.481 141.582L169.56 62.0551C170.328 56.5468 166.484 51.4593 160.976 50.6919Z" fill="url(#paint2_linear_236_2713)"/>
<path d="M167.35 44.5696L73.9818 33.063C70.9287 32.8139 68.185 34.808 67.4143 37.7588C65.6271 44.6544 63.1615 51.6624 60.242 58.6293L166.919 73.3737C169.224 66.6257 171.183 59.5535 172.938 52.2981C173.836 48.5532 171.213 44.8738 167.369 44.5622L167.35 44.5696Z" fill="#7274FF"/>
<g filter="url(#filter0_b_236_2713)">
<path d="M25.6321 115.995C22.3361 120.045 25.7031 129.039 30.8371 129.962C51.0635 133.534 80.8719 138.308 121.635 143.931C131.867 145.342 141.701 146.406 145.062 133.623C145.062 133.623 161.796 88.3662 166.878 73.3935L60.2012 58.6491C51.0887 80.3232 37.5101 101.382 25.6205 116.022L25.6321 115.995Z" fill="url(#paint3_linear_236_2713)"/>
<path d="M141.972 141.335C143.624 139.554 144.915 137.116 145.778 133.849L145.814 133.753L145.955 133.371C146.079 133.036 146.261 132.542 146.495 131.909C146.963 130.642 147.636 128.815 148.46 126.577C150.109 122.099 152.359 115.974 154.769 109.38C159.587 96.197 165.044 81.1308 167.589 73.6346L167.88 72.7749L166.981 72.6506L60.3039 57.9062L59.7332 57.8273L59.5099 58.3584C50.4337 79.9461 36.9043 100.934 25.057 115.526L25.0504 115.522C23.159 117.846 23.2573 121.431 24.3707 124.414C25.4842 127.396 27.7604 130.171 30.7044 130.7L30.7067 130.701C50.944 134.274 80.7619 139.05 121.533 144.674C126.613 145.374 131.791 146.027 136.126 144.822C138.319 144.213 140.311 143.126 141.972 141.335Z" stroke="url(#paint4_linear_236_2713)" stroke-width="1.5"/>
</g>
<path d="M83.1123 45.1774C82.5957 42.5984 79.516 41.0406 76.2336 41.6981C72.9513 42.3556 70.7092 44.9793 71.2258 47.5583C71.7424 50.1374 74.822 51.695 78.1044 51.0375C81.3868 50.3801 83.6289 47.7564 83.1123 45.1774Z" fill="url(#paint5_linear_236_2713)"/>
<path d="M96.009 35.7465L85.1829 34.0811C85.1257 33.8142 85.0516 33.5533 85.0005 33.3034C84.8513 33.5291 84.7083 33.7719 84.5761 33.9916C84.4657 34.1651 84.3614 34.3557 84.302 34.5111C82.9116 38.0162 82.7069 41.9977 82.1878 45.6893C81.2537 52.3456 70.7738 51.6484 71.7067 44.9351C72.2451 41.0833 72.6243 36.4646 73.9102 32.3455C75.1633 28.2957 77.2708 24.7066 81.2114 22.761C85.1581 20.8324 89.7941 22.01 92.6264 25.2695C95.148 28.142 95.9735 32.0042 95.9859 35.7356L96.009 35.7465Z" fill="url(#paint6_linear_236_2713)"/>
<path d="M106.734 48.5677C106.127 46.0083 102.995 44.5593 99.7378 45.3312C96.4805 46.1031 94.3315 48.8036 94.938 51.363C95.5445 53.9223 98.6768 55.3713 101.934 54.5994C105.191 53.8275 107.34 51.127 106.734 48.5677Z" fill="url(#paint7_linear_236_2713)"/>
<path d="M119.299 38.6966L108.421 37.4109C108.355 37.1461 108.272 36.888 108.212 36.64C108.071 36.8709 107.936 37.1185 107.812 37.3426C107.708 37.52 107.61 37.7141 107.556 37.8714C106.289 41.423 106.224 45.4092 105.834 49.1167C105.134 55.8016 94.6357 55.4714 95.3332 48.7296C95.7366 44.8613 95.954 40.2322 97.095 36.0707C98.2057 31.9795 100.186 28.3188 104.057 26.2366C107.933 24.1711 112.608 25.1859 115.552 28.3443C118.173 31.1269 119.133 34.9578 119.276 38.6865L119.299 38.6966Z" fill="url(#paint8_linear_236_2713)"/>
<path d="M129.551 51.8515C128.935 49.2943 125.798 47.8565 122.543 48.6402C119.289 49.4238 117.149 52.1321 117.765 54.6892C118.381 57.2464 121.518 58.6841 124.773 57.9005C128.027 57.1168 130.167 54.4086 129.551 51.8515Z" fill="url(#paint9_linear_236_2713)"/>
<path d="M142.063 41.9322L131.18 40.6857C131.113 40.4212 131.029 40.1634 130.968 39.9156C130.828 40.1469 130.694 40.395 130.571 40.6196C130.467 40.7973 130.37 40.9918 130.317 41.1493C129.063 44.7054 129.012 48.6919 128.635 52.4008C127.959 59.0882 117.46 58.7958 118.133 52.0515C118.522 48.1818 118.723 43.5519 119.849 39.3863C120.945 35.2911 122.913 31.6234 126.775 29.5272C130.645 27.4478 135.322 28.4457 138.278 31.5935C140.909 34.3666 141.883 38.194 142.039 41.9222L142.063 41.9322Z" fill="url(#paint10_linear_236_2713)"/>
<path d="M152.388 53.9502C151.738 51.4017 148.581 50.007 145.337 50.835C142.094 51.663 139.992 54.4003 140.642 56.9488C141.293 59.4973 144.45 60.892 147.693 60.0639C150.937 59.2359 153.039 56.4987 152.388 53.9502Z" fill="url(#paint11_linear_236_2713)"/>
<path d="M164.78 43.8538L153.882 42.7561C153.811 42.4925 153.723 42.2359 153.659 41.9889C153.522 42.2222 153.392 42.4721 153.271 42.6984C153.17 42.8775 153.076 43.0732 153.024 43.2315C151.819 46.8044 151.823 50.7912 151.497 54.5048C150.912 61.2008 140.41 61.052 140.991 54.2991C141.327 50.4244 141.465 45.7923 142.534 41.6117C143.574 37.5019 145.491 33.8076 149.324 31.6588C153.165 29.5267 157.856 30.4606 160.855 33.5677C163.523 36.3046 164.549 40.1184 164.756 43.8441L164.78 43.8538Z" fill="url(#paint12_linear_236_2713)"/>
<path d="M93 92.8667L99.4776 105L124 91" stroke="url(#paint13_linear_236_2713)" stroke-width="5" stroke-linecap="round" stroke-linejoin="round"/>
<defs>
<filter id="filter0_b_236_2713" x="18.8232" y="53.0054" width="154.06" height="97.2366" filterUnits="userSpaceOnUse" color-interpolation-filters="sRGB">
<feFlood flood-opacity="0" result="BackgroundImageFix"/>
<feGaussianBlur in="BackgroundImageFix" stdDeviation="2"/>
<feComposite in2="SourceAlpha" operator="in" result="effect1_backgroundBlur_236_2713"/>
<feBlend mode="normal" in="SourceGraphic" in2="effect1_backgroundBlur_236_2713" result="shape"/>
</filter>
<linearGradient id="paint0_linear_236_2713" x1="163.59" y1="25.7891" x2="75.0009" y2="162.169" gradientUnits="userSpaceOnUse">
<stop stop-color="#7273FF"/>
<stop offset="1" stop-color="#B8B9FF"/>
</linearGradient>
<linearGradient id="paint1_linear_236_2713" x1="101.373" y1="83.9262" x2="183.354" y2="82.232" gradientUnits="userSpaceOnUse">
<stop stop-color="#F1F1FF"/>
<stop offset="1" stop-color="#CECFFF"/>
</linearGradient>
<linearGradient id="paint2_linear_236_2713" x1="172.741" y1="75.8661" x2="143.471" y2="96.9262" gradientUnits="userSpaceOnUse">
<stop stop-color="#F1F1FF"/>
<stop offset="1" stop-color="#E9E9FF"/>
</linearGradient>
<linearGradient id="paint3_linear_236_2713" x1="73.3258" y1="101.796" x2="171.945" y2="48.61" gradientUnits="userSpaceOnUse">
<stop stop-color="white"/>
<stop offset="1" stop-color="#E5E6FF"/>
</linearGradient>
<linearGradient id="paint4_linear_236_2713" x1="139.572" y1="67.4703" x2="129.264" y2="154.619" gradientUnits="userSpaceOnUse">
<stop stop-color="white" stop-opacity="0"/>
<stop offset="1" stop-color="white"/>
</linearGradient>
<linearGradient id="paint5_linear_236_2713" x1="71.2257" y1="47.5583" x2="83.1123" y2="45.1773" gradientUnits="userSpaceOnUse">
<stop stop-color="#494949"/>
<stop offset="0.0001" stop-color="#C9C4FF"/>
<stop offset="1" stop-color="white"/>
</linearGradient>
<linearGradient id="paint6_linear_236_2713" x1="78.6613" y1="26.7049" x2="93.6547" y2="45.9151" gradientUnits="userSpaceOnUse">
<stop stop-color="#EBEBFF"/>
<stop offset="1" stop-color="#CBCDFF"/>
</linearGradient>
<linearGradient id="paint7_linear_236_2713" x1="89.8382" y1="52.8833" x2="106.217" y2="50.4979" gradientUnits="userSpaceOnUse">
<stop offset="0.0001" stop-color="#C9C4FF"/>
<stop offset="1" stop-color="white"/>
</linearGradient>
<linearGradient id="paint8_linear_236_2713" x1="96.2646" y1="17.5489" x2="115.871" y2="59.643" gradientUnits="userSpaceOnUse">
<stop offset="0.0001" stop-color="#C9C4FF"/>
<stop offset="1" stop-color="white"/>
</linearGradient>
<linearGradient id="paint9_linear_236_2713" x1="117.765" y1="54.6892" x2="128.339" y2="53.415" gradientUnits="userSpaceOnUse">
<stop stop-color="#494949"/>
<stop offset="0.0001" stop-color="#C9C4FF"/>
<stop offset="1" stop-color="white"/>
</linearGradient>
<linearGradient id="paint10_linear_236_2713" x1="123.171" y1="16.8675" x2="133.102" y2="53.7135" gradientUnits="userSpaceOnUse">
<stop offset="0.0001" stop-color="#C9C4FF"/>
<stop offset="1" stop-color="white"/>
</linearGradient>
<linearGradient id="paint11_linear_236_2713" x1="140.642" y1="56.9488" x2="152.388" y2="53.9502" gradientUnits="userSpaceOnUse">
<stop stop-color="#494949"/>
<stop offset="0.0001" stop-color="#C9C4FF"/>
<stop offset="1" stop-color="white"/>
</linearGradient>
<linearGradient id="paint12_linear_236_2713" x1="142.389" y1="15.4592" x2="155.981" y2="55.7564" gradientUnits="userSpaceOnUse">
<stop offset="0.0001" stop-color="#C9C4FF"/>
<stop offset="1" stop-color="white"/>
</linearGradient>
<linearGradient id="paint13_linear_236_2713" x1="123.137" y1="93.4378" x2="111.344" y2="112.121" gradientUnits="userSpaceOnUse">
<stop stop-color="#7273FF"/>
<stop offset="1" stop-color="#B8B9FF"/>
</linearGradient>
</defs>
</svg>
